/* XPM */
static const char *collectible[] = {
/* columns rows colors chars-per-pixel */
"64 64 221 2 ",
"   c #171630",
".  c #1E314C",
"X  c #1F3352",
"o  c #203654",
"O  c #29364E",
"+  c #26425F",
"@  c #1F5279",
"#  c #244A6C",
"$  c #224567",
"%  c #254E72",
"&  c #265275",
"*  c #25567B",
"=  c #29557A",
"-  c #2B5C7D",
";  c #2B5776",
":  c #395C77",
">  c #2F617E",
",  c #37617E",
"<  c #435B74",
"1  c #4A657D",
"2  c #70707F",
"3  c #606474",
"4  c #265C81",
"5  c #295D84",
"6  c #2B648A",
"7  c #2D698E",
"8  c #2D6286",
"9  c #326685",
"0  c #356D8B",
"q  c #3B6884",
"w  c #35708E",
"e  c #2C6B93",
"r  c #2A6B95",
"t  c #306E93",
"y  c #2D739C",
"u  c #2B759B",
"i  c #387695",
"p  c #3B7C9D",
"a  c #327499",
"s  c #2B79A3",
"d  c #327BA4",
"f  c #327EA9",
"g  c #3B7DA0",
"h  c #476A83",
"j  c #566C81",
"k  c #4E788C",
"l  c #587585",
"z  c #587C93",
"x  c #6D7C8D",
"c  c #667486",
"v  c #7E7F8D",
"b  c #3D809E",
"n  c #3C82A2",
"m  c #3283AD",
"M  c #3B89AA",
"N  c #2E88B4",
"B  c #3285B3",
"V  c #348AB5",
"C  c #398CB5",
"Z  c #368DBA",
"A  c #388EBA",
"S  c #3C92B7",
"D  c #3A92BC",
"F  c #3794BD",
"G  c #2F85AD",
"H  c #4C8797",
"J  c #528897",
"K  c #63808E",
"L  c #79828D",
"P  c #638796",
"I  c #7A8998",
"U  c #4489A5",
"Y  c #4291B3",
"T  c #449BBE",
"R  c #5892A6",
"E  c #7596AA",
"W  c #53A4B4",
"Q  c #5BA6B6",
"!  c #3795C4",
"~  c #3A95C2",
"^  c #3C9AC6",
"/  c #3C9ECA",
"(  c #3398C1",
")  c #3EA1CD",
"_  c #3BA7D2",
"`  c #489EC1",
"'  c #429EC7",
"]  c #5D9FC1",
"[  c #42A2CC",
"{  c #4AAACD",
"}  c #46A6C8",
"|  c #50AFC6",
" . c #52B7CB",
".. c #43A7D2",
"X. c #45ABD4",
"o. c #4AAED6",
"O. c #46AED8",
"+. c #4BB4DB",
"@. c #4AB5DC",
"#. c #52BADF",
"$. c #56B5D7",
"%. c #70A9C1",
"&. c #4AB6E1",
"*. c #4CBBE3",
"=. c #54BDE2",
"-. c #5BC1D3",
";. c #64CDDB",
":. c #78C2DC",
">. c #66D1DE",
",. c #55C1E5",
"<. c #59C2E5",
"1. c #54C4EA",
"2. c #5BC6EB",
"3. c #5CC9EB",
"4. c #59C8E0",
"5. c #5CCFF6",
"6. c #57C9F0",
"7. c #5DD0F6",
"8. c #62C8EA",
"9. c #64D2ED",
"0. c #62CEF5",
"q. c #64D2F7",
"w. c #6AD4F6",
"e. c #66D9F5",
"r. c #66D4F8",
"t. c #69D6FC",
"y. c #6BDDFC",
"u. c #68DCF8",
"i. c #79D4F3",
"p. c #71C4E2",
"a. c #74E9EF",
"s. c #6DE2FC",
"d. c #6AE7FB",
"f. c #70E6FC",
"g. c #75EDFC",
"h. c #78EFFC",
"j. c #76F3FD",
"k. c #7AF4FE",
"l. c #7BF9FF",
"z. c #85818D",
"x. c #858A96",
"c. c #858E9B",
"v. c #8B8D99",
"b. c #898A95",
"n. c #89929D",
"m. c #97959D",
"M. c #8D97A2",
"N. c #969AA4",
"B. c #9C9CA5",
"V. c #9696A0",
"C. c #A39CA4",
"Z. c #A6A6AE",
"A. c #ACACB4",
"S. c #A8ABB5",
"D. c #B1AFB3",
"F. c #AFB0B6",
"G. c #B5B4BB",
"H. c #BAB3BA",
"J. c #C2BCC2",
"K. c #87C0D4",
"L. c #BBC7CD",
"P. c #BDD0D9",
"I. c #8DDDF8",
"U. c #87DCF8",
"Y. c #80CCE5",
"T. c #B6D7E5",
"R. c #9DE1F8",
"E. c #80FFFF",
"W. c #84E3FA",
"Q. c #ABE6FA",
"!. c #A7E5F9",
"~. c #B2EBFA",
"^. c #CBC6CA",
"/. c #C8C6CA",
"(. c #D9D2D5",
"). c #DDD7DA",
"_. c #DEDBDB",
"`. c #D1CDD2",
"'. c #E1DCDD",
"]. c #E5D9D6",
"[. c #E6DFE1",
"{. c #D2E7EE",
"}. c #CDEEFA",
"|. c #D4F1FB",
" X c #C8F1FB",
".X c #E5E4E5",
"XX c #EBE4E5",
"oX c #EBEBEB",
"OX c #E4E8EB",
"+X c #F2EDED",
"@X c #EFF0EF",
"#X c #F5F1EF",
"$X c #EEEFF0",
"%X c #F0EFF0",
"&X c #EFF0F0",
"*X c #E5F6FC",
"=X c #EAF8FD",
"-X c #F3F4F3",
";X c #FAF5F5",
":X c #F7F8F7",
">X c #F7F7F8",
",X c #F8F7F8",
"<X c #F7F8F8",
"1X c #F7F9FA",
"2X c #F8F8F8",
"3X c #F9F9F9",
"4X c #F8F8F9",
"5X c gray98",
"6X c #FBFBFB",
"7X c #FAFBFB",
"8X c #FAF9FA",
"9X c #FBFCFC",
"0X c gray99",
"qX c #FDFDFD",
"wX c #FCFDFD",
"eX c #FEFEFE",
"rX c white",
"tX c #FEFFFE",
"yX c #FDFEFE",
"uX c #FDFDFD",
"iX c #FAF8F7",
/* pixels */
"eXeXeX-XoXoX-XeXeX2XoXoXoXeXeXeX$XoXoX2XeXeX-XoXoX-XeXeX2XoXoXoXeXeXeXoXoXoX2XeXeXeXeXeX-XoXoX&XeXeXeXoXoXoX2XeXeX-XoXoX-XeXeXeX",
"eXeXeX-XoXoX-XeXeX2XoXoXoXeXeXeX$XoXoX>XeXeX-XoXoX-XeXeX2XoXoXoXeXeXeX@XoXoX2XeXeXeXeXeX-XoXoX-XeXeXeXoXoXoX2XeXeX-XoXoX-XeXeXeX",
"eXeXeX-XoXoX-XeXeX2XoXoXoXeXeXeXoXoXoX<XeXeX-XoXoX-XeXeX2XoXoXoXeXeXeXoXoXoX2XeXeXeXeXeX-XoXoX-XeXeXeXoXoXoX2XeXeX-XoXoX-XeXeXeX",
"oXoXoX2XeXeX-XoXoX-XeXeX2XoXoXoX2XeXeX-XoXoX-XeXeX-XoXoX-X2X2X2XoXoXoX2XeXeX-XoXoX-XeXeX0X2XeX2XoXoXoX2XeXeX-XoXoX-XeXeX-XoXoXoX",
"oXoXoX2XeXeX-XoXoX-XeXeXeXoXoXoX2XeXeX-XoXoX-XeXeX-XoXoX@XeXeXeXoXoXoX2XeXeX-XoXoX-XeXeXeXeXeX2XoXoXoXeXeXeXoXoXoX-XeXeX2XoXoXoX",
"oXoXoX2XeXeX-XoXoX-XeXeXeXoXoXoX2XeXeX-XoXoX-XeXeX-XoXoX&XeXeXeXoXoXoX2XeXeX-XoXoX-XeXeXeXeXeX2XoXoXoXeXeXeXoXoXoX-XeXeX2XoXoXoX",
"2X2X2X-X-X-X-X2X2X-X-X-X-X2X2X2X-X-X-X-X2X2X-X-X-X-X2X2X-X-X-X-X2X2X2X-X-X-X-X2X2X-X-X-X-X-X-X-X2X2X2X-X-X-X-X2X2X-X-X-X-X2X2X2X",
"eXeXeX$XoXoX-XeXeX2XoXoXoXeXeXeXoXoXoX-XeXeX-XoXoX-XeXeX2XoXoXoXeXeXeXoXoXoX2XeXeX-XoXoXoXoXoXoXeXeXeXoXoXoX2XeXeX-XoXoX-XeXeXeX",
"eXeXeXoXoXoX-XeXeX2XoXoXoXeXeXeXoXoXoX-XeXeX-XoXoX-XeXeX2XoXoXoXeXeXeXoXoXoX2XeXeX-XoXoXoXoXoX@XeXeXeXoXoXoX2XeXeX-XoXoX-XeXeXeX",
"-X-X-X-X-X-X-X-X-X-X-X-X-X-X-X-X-X-X-X-X-X-X-X-X-X-X-X-X-X-X-X-X-X-X-X-X-X-X-X-X-X-X-X-X-X-X-X-X-X-X-X-X-X-X-X-X-X-X-X-X-X-X-X-X",
"oXoXoX2XeXeX-XoXoX-XeXeXeXoXoXoX2XeXeX-XoXoX-XeXeX-XoXoXoXeXeXeXoXoXoX0XeXeX-XoXoX-XeXeXeXeXeX2XoXoXoXeXeXeXoXoXoX-XeXeX2XoXoXoX",
"oXoXoX2XeXeX-XoXoX-XeXeXeXoXoXoX2XeXeX-XoXoX-XeXeX-XoXoXoXeXeXeXoXoXoX2XeXeX-XoXoX-XeXeXeXeXeX2XoXoXoXeXeXeXoXoXoX-XeXeX2XoXoXoX",
"-X-X-X-X2X2X-X-X-X-X2X2X-X-X-X-X-X2X2X-X-X-X-X2X2X-X-X-X-X2X2X-X-X-X-XiX2X2X-X-X-X-X2X2X2X2X2X-X-X-X-X2X2X2X-X-X-X-X2X2X-X-X-X-X",
"eXeXeXoXoXoX-XeXeX2XoXoXoXeXeXeXoXoXoX-XeXeX-XoXoX-XeXeX2XoXoXoXeXeXeXoXoXoX2XeXeX-XoXoXoXoXoXoXeXeXeXoXoXoX2XeXeX-XoXoX-XeXeXeX",
"eXeXeX-XoXoX-XeXeX2XoXoXoXeXeXeXoXoXoX,XeXeX-XoXoX-XeXeX2XoXoXoXeXeXeXoXoXoX2XeXeX-XoXoXoXoXoX-XeXeXeXoXoXoX2XeXeX-XoXoX-XeXeXeX",
"9X2XeX-XoXoX-XeXeX-XoXoX@X2XeX0X-XoXoX>XeXeX-XoXoX-XeXeX2XoXoXoX2X2X2X@XoXoX-XeXeX-XoXoXoXoXoX-XeXeXeXoXoXoX2XeXeX-XoXoX-XeX2X2X",
"oXoXoX2XeXeX-XoXoX-XeXeXeXoXoXoXeXeXeX-XoXoX-XeXeX-XoXoX%XeXeXeXoXoXoX2XeXeX-XoXoX-XeXeXeXeXeXeXeXeXeXeXeXeXoXoXoX-XeXeX2XoXoXoX",
"oXoXoX2XeXeX-XoXoX-XeXeXeXoXoXoX2XeXeX-XoXoX-XeXeX2XoXoX-XeXeXeX-XoXoX2XeXeX-XoXoX-XeXeX2X-X-X<X9XeXeXeXeXeXoXoXoX-XeXeX2XoXoXoX",
"oXoXoX2XeXeX-XoXoX-XeXeXeXoXoXoX2XeXeX-XoXoX-XeXeX2X-X-X<XeXeXeX:X-X-X9XeXeX-XoXoX-XeXeX-XoXoX-X-X-X2XeXeXeXoXoXoX-XeXeX2XoXoXoX",
"eXeXeX-XoXoX-XeXeX<XoXoXoX9XeXeX-XoXoX-XeXeX-XoX-X-XeXeX2X9XeXeX9X9XeX<X-X-X2XeXeX-XoXoX-XeXeX<XoXoXoX-X-X-X2XeXeX-XoXoX-XeXeXeX",
"eXeXeX-XoXoX-XeXeX2XoXoXoXeXeXeXoXoXoX>XeXeX2X-X-X-XeXeXeX+XXXXX2XeXeX2X-X-X2XeXeX-XoXoX-XeXeX2XoXoXoXeXeXeXeXeXeX-XoXoX-XeXeXeX",
"eXeXeX$XoXoX-XeXeX2XoXoXoXeXeXeXoXoXoX2XeXeX2X-X-XeXeX0XG.K k J n.J.eXeXeX>X2XeXeX2X-XoX-XeXeX2XoXoXoXeXeXeX2XeXeX-XoXoX-XeXeXeX",
"-X-X-X-X2X2X-X-X-X-X2X2X2X-X-X-X<X2X2X2X2X-X2XeXeX(.c.l Q a.l.k. .R l N.[.eXeX9X-X2X9X2X2X-X-X-X2X2X2X-X@XoX2XeXeX-XoXoX-XeXeXeX",
"oXoXoX2XeXeX-XoXoX&XeXeXeXoXoXoX2XeXeX2X2XeX2X).x.J ;.g.g.s.0.0.y.f.e.| P L G.;XeXeX2XeX2X-X-X-XeXeXeXoXoXoX2XeXeX-XoXoX-XeXeXeX",
"oXoXoX2XeXeX-XoXoX-XeXeXeX-X-X-X2XeX9XeXeX).c.H ;.j.g.r.0.0.q.q.0.0.0.y.e.4.W K G.9XeXeX2X-X-X>XeXeXeXoXoXoX2XeXeX-XoXoX-XeXeXeX",
"-X-X-X-X-X-X-X-X-X-X-X<X2X2X,X-XeXeXeX(.c.J ;.j.s.0.0.q.q.q.q.q.q.q.q.q.w.t.y.9.E z.A.`.eXeXeX2X<X2X2X,X:X-X-X-X-X-X-X-X-X-X-X-X",
"eXeXeXoXoXoX-XeXeX2XoX-X-XeXeXeX.X(.c.J ;.j.s.0.0.q.q.q.q.q.q.q.q.q.q.7.5.w.R.*XeX-XZ.N.z.v ^.iXeXeX9XeXeXeX-XoXoX-XeXeX2XoXoXoX",
"eXeXeX@XoXoX-XeXeX2X-X-X2XeXF.v.P H >.j.s.0.0.q.q.q.q.q.q.q.q.q.q.7.7.I.Q.*XeXeX9XeXeX2XT.p.U c.v.G.;X2XeXeX-X-XoX-XeXeX2XoXoXoX",
"2X2X2X-X-X-X-X2X2X2X-X2XeXZ.W -.a.E.y.0.0.q.q.q.q.q.q.q.q.q.q.7.7.U.}.1XeXeX9XeXeX9X}.I.t.r.f.-. .Q l M.H.oXeX:X-X2X2X2X-X-X-X-X",
"oXoXoX2XeXeX-XoXoX-XeXeXA.W l.e.g.l.s.e.r.0.q.q.q.q.q.q.q.7.q.R.|.1XeX9X9XeXeX=X!.I.q.5.q.q.0.t.y.y.d.-.U E iXeXeX-XoXoX-XeXeXeX",
"oXoXoX2XeXeX-XoXoX-X9XeXx.{ 8.#.9.e.h.k.k.s.r.0.q.q.q.q.7.i.|.eXeX9X9XeXeX=XQ.w.5.5.q.q.q.q.q.q.q.0.2.2.t.m B.eX9X2XoXoX-XeXeXeX",
"oXoXoX2XeXeX-XoXoX-X2XeXv.S <.<.=.=.<.3.g.l.k.f.e.0.7.5.Q.1XeXeX9XeXeX*XQ.w.5.q.q.q.q.q.q.q.r.q.3.#.+.~ D +.h +XeX2X-XoX-XeX2X2X",
"oXoXoX2XeXeX-XoXoX-XeXeX).; / =.,.,.=.=.<.3.9.g.h.g.W.|.9XeX9XeXeX=X!.w.7.q.q.q.q.q.q.q.r.q.2.=.o.^ y 7 5 *.q XXeX2XeXeX2XoXoXoX",
"oXoXoX2XeXeX-XoXoX-XeXeXeXM.y C ..o.=.=.=.=.=.=.w.d. XeX9XeXeXeX~.w.7.q.q.q.q.q.q.q.r.q.3.=.o.~ d % % = ' D x eX-X2XeXeX2XoXoXoX",
"oXoXoX2XeXeX-XoXoX-XeXeXeX'.: # 6 V D X.+.=.=.=.=.8.{.iX2XeXeX~.7.0.q.q.q.0.q.q.r.0.3.#.X.^ d & # d ..' a O ^.eX-X2XeXeX-XoXoXoX",
"eXeXeX-XoXoX-XeXeX2X-XeX.Xz G f 6 $ & e f ^ o.=.*.Y.#XoXoX;X~.g.l.h.y.q.w.u.0.=.#.o.[ ^ d % & d O.X.p + - U S.eXeX<XoXoX-XeX9X9X",
"eXeXeX&XoXoX-XeXeX9X-XeXv.} +.+./ B y * # 5 d D _ :.oXoX%XOX8.3.e.h.k.h.k.u.#.o.^ V 6 $ = d +.1.p X   n *.*.: oXeX-XoXoX-XeXeXeX",
"eXeXeXoXoXoX-XeXeX9X-XeXn.} ,.i T =.O.! m 7 # & r ] _..X.X{.=.=.=.,.<.g.f.O.D 5 - . 4 m +.1.` ; # f + y F *.q XXeX-XoXoX-XeXeXeX",
"-X-X-X-X2X2X-X-X-X-X2XeXv.F +.6 - i M { X.^ Z d * < m.D.).P.X.#.,.=.=.s.#.~ & 8 e a ..6.` 9 = y ^ m & B ^ X.j ;XeX2X2X2X-X-X-X-X",
"oXoXoX2XeXeX-XoXoX-X9XeXN.s *...@.S i 9 p ` o...~ f @ : 3 c.d ~ X.+.,.9.[ B & d ) 1.} ; = y ! V 5 # f ' ( , '.eX-X2XeXeX2XoXoXoX",
"oXoXoX2XeXeX-XoXoX-XeXeXqXI m [ &.,.1.+.n 9 0 w { @.) N s = # = & f Z ..=.X.[ +.} - o * ! V - # 7 D [ N k C.eX-X-X2XeXeX2XoXoXoX",
"-X-X-X-X-X-X-X-X-X-X2X2XeX2Xc.h e C X.#.2.,.T Y > U :.$._ / / e 7 # # 6 a U M n 8 r B V 5 % 6 C ..Z 0 c _.eX2X2X2X-X-X-X-X-X-X-X",
"eXeXeXoXoXoX-XeXeX2XoX-X-X2XeXoXH.I : g m X.=.1.@.%.].L.K.$.Y +.) ~ V 4 * 4 5 5 m m 6 # 6 D ..V 9 x ^.eXeX2XeXeXeX-XoXoX-XeXeXeX",
"eXeXeX@XoXoX-XeXeX2XoXoX-XeXeXeXeXiX;XS.x.h M ^ @.i.+XoXXXL.0 0 T { @.&.&./ Z Z # o 7 A ) V 9 x ^.eXeXeXeXeXeXeXeX-XoXoX-XeXeXeX",
"2X2X2X-X-X-X-X2X2X-X-X-X-X2X2X2X-X2XeXeXeX[.x.c 7 R .X$X0X{.*.` 0 ; i n b 7 % # e A ) / g c ^.2XeX2X-X2X2X2X2X2X2X-X-X-X-X2X2X2X",
"oXoXoX2XeXeX-XoXoX-XeXeXeXoXoXoX2XeXeX-X-XeXeX2X/.Z.2 n.F.P.+.*.+.#.Y p . = f D [ [ u : Z.eXeX2X2XeXeX-XoXoX<XeX2XeXeXeX2XoXoXoX",
"oXoXoX2XeXeX-XoXoX-XeXeXeXoXoXoX2XeXeX-X-X-X2XeXeX2XeX/.V.L , G X.+.*.1.=.^ [ / u 1 N.oXeX<X-X-XeXeXeXoXoXoX2XeXeXeXeXeX2XoXoXoX",
"oXoXoX2XeXeX-XoXoX-XeXeX2XoXoXoX2XeXeX-X-X-X2XeX2X2X2XeXeXoX'.x.q 4 t [ / ~ r h B.oXeXeX2X-X-X-X9X9X2XoXoXoX2XeX2XeXeXeX2XoXoXoX",
"eXeXeX-XoXoX-XeXeX2XoXoXoXeXeXeXoXoXoX-XeXeX-XoX-X-XeXeX2XeXeXeX(.^.H.j j 1 N.XXeXeX-X-X2XeXeX2XoXoXoXeXeXeXoXoXoX-XeXeX2XoXoXoX",
"eXeXeX-XoXoX-XeXeX2XoXoXoXeXeXeX@XoXoX-XeXeX-XoXoX-XeXeXeX-X-X-XeXeXeXeXeXeXeXeX9X-X-XoX-XeXeX2XoXoXoXeXeXeX&XoXoX-XeXeX2XoXoXoX",
"eXeXeX-XoXoX-XeXeX2XoXoXoXeXeXeX@XoXoX:XeXeX-XoXoX-XeXeX2X-X-X-XeX9X9X<X-X:X2XeXeX-XoXoX-XeXeX2XoXoXoXeXeXeX-XoXoX-XeXeX2XoXoXoX",
"oXoXoXoXoX-X-XoXoX-XeX2X2XoXoXoX2XeXeX-XoXoX-XeXeX-XoXoX-XeXeX2X-X-X-X2XeXeX-X-X-X:XeXeX-XoXoX-XeXeX2XoXoXoX2XeXeX-XoXoX-XeXeXeX",
"oXoXoXoXoX-X-XoXoX-XeXeXeXoXoXoX2XeXeX-XoXoX-XeXeX-XoXoX-XeXeXeXoXoXoX2XeXeX-XoXoX-XeXeX-XoXoX$XeXeXeXoXoXoX2XeXeX-XoXoX-XeXeXeX",
"oXoXoXoXoX2X-XoXoX-XeXeXeXoXoXoX2XeXeX-XoXoX-XeXeX-XoXoXoXeXeXeXoXoXoX2XeXeX-XoXoX-XeXeX-XoXoX-XeXeXeXoXoXoX2XeXeX-XoXoX-XeXeXeX",
"oXoXoX-X2XeX-XoX2X-X-X-X-X2X2X2X-X-X-X-X2X2X-X-X-X-X2X2X-X-X-X-X2X2X2X-X-X@X-X2X2X-X-X-X-X2X2X-X-X-X-X2X2X2X-X-X-X-X2X2X-X-X-X-X",
"oXoXoX2XeXeX-XoXeX2XoXoXoXeXeXeXoXoXoX-XeXeX-XoXoX-XeXeX2XoXoXoXeXeXeXoXoXoX2XeXeX-XoXoX-XeXeX2XoXoXoXeXeXeXoXoXoX-XeXeXiXoXoXoX",
"oXoXoX2XeXeX-XoXeX2XoXoXoXeXeXeXoXoXoX-XeXeX-XoXoX-XeXeX2XoXoXoXeXeXeXoXoXoX,XeXeX-XoXoX-XeXeX2XoXoXoXeXeXeXoXoXoX-XeXeX2XoXoXoX",
"-X-X-X-X-X-X-X-XeX0X-X-X-XeXeXeXoXoX-X-X-X-X-X-X-X-X-X-X-X-X-X-X-X-X-X-X-X-X-X-X-X-X-X-X-X-X-X-X-X-X-X-X-X-X-X-X-X-X-X-X-X-X-X-X",
"eXeXeXoXoXoX-XeXeXeXeXeXeXeXeXeX-X-XeX-XoXoX-XeXeX-XoXoX-XeXeXeXoXoXoX2XeXeX-XoXoX-XeXeX-XoXoXoXeXeXeXoXoXoX2XeXeX-XoXoX-XeXeXeX",
"eXeXeX&XoXoX-XeXeXeXeXeXeX2X2X2X-X2XeX-XoXoX-XeXeX2XoXoX-XeXeXeXoXoXoX2XeXeX-XoXoX-XeXeX-XoXoX&XeXeXeXoXoXoX2XeXeX-XoXoX-XeXeXeX",
"2X2X2X-X-X-X-X2X2X2XeXeXeX-X-X-X-X-X2X-X-X-X-X2X2X-X-X-X-X2X2X<X-X-X-X-X2X2X-X-X-X-X2X2X-X-X-X-X2X2X2X-X-X-X-X2X2X-X-X-X2X2X2X2X",
"oXoXoX2XeXeX-XoXoXoXeXeXeXeXeXeXoXoXoX-XeXeX-XoXoX-XeXeX2XoXoXoXeXeXeXoXoXoX-XeXeX-XoXoX-XeXeX2XoXoXoXeXeXeXoXoXoX-XeXeX2XoXoXoX",
"oXoXoX2XeXeX-XoXoX-XeXeXeXeXeXeXoXoXoX-XeXeX-XoXoX-XeXeX2XoXoXoXeXeXeXoXoXoX2XeXeX-XoXoX-XeXeX2XoXoXoXeXeXeXoXoXoX-XeXeX2XoXoXoX",
"oXoXoX2XeXeX-XoXoX-XeXeXeXeXeXeXoXoXoX-XeXeX-XoXoX-XeXeX2XoXoXoXeXeXeXoXoXoX2XeXeX-XoXoX-XeXeX2XoXoXoXeXeXeXoXoXoX-XeXeX2XoXoXoX"
};
