/* XPM */
static const char *exit[] = {
/* columns rows colors chars-per-pixel */
"64 64 213 2 ",
"   c #01050A",
".  c #030304",
"X  c #080E15",
"o  c #080E16",
"O  c #0D1116",
"+  c #0F1319",
"@  c #11161D",
"#  c #12181E",
"$  c #1F171E",
"%  c #380109",
"&  c #230B11",
"*  c #3A0B11",
"=  c #270F14",
"-  c #0E1923",
";  c #151B23",
":  c #191E26",
">  c #181F28",
",  c #251B20",
"<  c #361A23",
"1  c #1B2126",
"2  c #1C242A",
"3  c #1F282D",
"4  c #1F2932",
"5  c #1E2730",
"6  c #21262B",
"7  c #21292D",
"8  c #312F2F",
"9  c #31302F",
"0  c #222B34",
"q  c #252E39",
"w  c #262C35",
"e  c #26323C",
"r  c #2A343D",
"t  c #2A3238",
"y  c #353333",
"u  c #383736",
"i  c #393837",
"p  c #3B3A39",
"a  c #313439",
"s  c #42040B",
"d  c #500813",
"f  c #760513",
"g  c #5B503F",
"h  c #615038",
"j  c #7B6136",
"k  c #1A2A44",
"l  c #293642",
"z  c #2C3943",
"x  c #293646",
"c  c #323C44",
"v  c #333D49",
"b  c #313F51",
"n  c #35414C",
"m  c #39454D",
"M  c #374047",
"N  c #2E4755",
"B  c #354553",
"V  c #3A4651",
"C  c #3C4954",
"Z  c #3A4C5B",
"A  c #364759",
"S  c #3B515E",
"D  c #3B4E61",
"F  c #3E5264",
"G  c #3F5469",
"H  c #484847",
"J  c #5B564B",
"K  c #424D56",
"L  c #414C5C",
"P  c #44525D",
"I  c #4B555C",
"U  c #5B5954",
"Y  c #514B41",
"T  c #695B46",
"R  c #625E57",
"E  c #6E614C",
"W  c #786649",
"Q  c #6A6253",
"!  c #796D56",
"~  c #7E7056",
"^  c #445462",
"/  c #465A67",
"(  c #41576B",
")  c #44596D",
"_  c #4B5C6B",
"`  c #495865",
"'  c #465E74",
"]  c #485F74",
"[  c #4B616D",
"{  c #4B6176",
"}  c #4A6378",
"|  c #496477",
" . c #526573",
".. c #556976",
"X. c #546B7C",
"o. c #596D7D",
"O. c #536878",
"+. c #767473",
"@. c #7D7C7B",
"#. c #787778",
"$. c #716D67",
"%. c #900A18",
"&. c #A20C1E",
"*. c #B90F1E",
"=. c #A50D21",
"-. c #B82E36",
";. c #D61B28",
":. c #E91E28",
">. c #F11E27",
",. c #CC343D",
"<. c #ED212B",
"1. c #E7202B",
"2. c #F1222A",
"3. c #F2323B",
"4. c #F52C35",
"5. c #8C6A32",
"6. c #A7742C",
"7. c #877656",
"8. c #947E57",
"9. c #92794A",
"0. c #807F7E",
"q. c #847D70",
"w. c #857D6D",
"e. c #F3525A",
"r. c #F56668",
"t. c #D2973E",
"y. c #9A8257",
"u. c #A28859",
"i. c #B99553",
"p. c #888277",
"a. c #908877",
"s. c #B89B63",
"d. c #D59D48",
"f. c #C99E53",
"g. c #D6A353",
"h. c #ECB966",
"j. c #556D82",
"k. c #586F81",
"l. c #5C7484",
"z. c #5E7988",
"x. c #617684",
"c. c #637986",
"v. c #657A8A",
"b. c #697E8E",
"n. c #637789",
"m. c #637E92",
"M. c #697F90",
"N. c #757C83",
"B. c #6D8395",
"V. c #6D8699",
"C. c #6C8D9D",
"Z. c #668596",
"A. c #708696",
"S. c #718799",
"D. c #738A9C",
"F. c #6B808E",
"G. c #768EA0",
"H. c #788FA2",
"J. c #7691A4",
"K. c #7B94A6",
"L. c #7D96A9",
"P. c #7E99AB",
"I. c #848383",
"U. c #898887",
"Y. c #989898",
"T. c #9A9384",
"R. c #819AAC",
"E. c #829DB1",
"W. c #85A1B5",
"Q. c #8AA6BA",
"!. c #8CA9BB",
"~. c #87A3B8",
"^. c #A4A3A2",
"/. c #ACABAA",
"(. c #A5A6A6",
"). c #AFB1B3",
"_. c #B3B3B3",
"`. c #BAB9B8",
"'. c #AFAFAF",
"]. c #A89F93",
"[. c #C2C1BF",
"{. c #9BB9CF",
"}. c #DEDEDE",
"|. c #D3D6DA",
" X c #CAC9C8",
".X c #E0DFDF",
"XX c #DFE0DF",
"oX c #E0E0DF",
"OX c #D7DAE1",
"+X c #E0DFE0",
"@X c #E3E3E3",
"#X c #E7E8E7",
"$X c #E6E8EB",
"%X c #ECECEC",
"&X c #E5E6E9",
"*X c #EFF0EF",
"=X c #EDEEF1",
"-X c #E7ECF3",
";X c #F0EFF0",
":X c #EFF0F2",
">X c #F4F4F4",
",X c #F7F8F7",
"<X c #F6F7F9",
"1X c #F6F8FB",
"2X c #FBFBFB",
"3X c #F9F9F9",
"4X c #FDFDFD",
"5X c white",
"6X c #FEFEFE",
"7X c #FEFEFE",
"8X c #FDFDFD",
"9X c #F8F8F7",
"0X c #F0EFEF",
/* pixels */
"4X4X%X@X%X4X2X#X@X>X4X>X@X#X4X4X#X@X>X4X2X#X#X2X4X>X@X#X4X4X#X@X>X4X9X@X#X2X4X%X#X4X4X#X@X>X4X9X@X#X2X4X*X@X%X4X4X#X@X>X4X>X@X#X",
"4X4X%X}.%X4X2X#X@X>X4X>X@X#X4X4X#XXX%X4X2X@X@X2X4X>XXX#X4X4X#XoX>X4X>X@X#X2X4X#X#X4X4X#X@X>X4X>X@X@X2X4X%X}.#X4X4X#X@X>X4X>X@X@X",
"%X%X>X>X>X%X%X>X>X;X%X>X>X>X%X%X>X>X>X%X%X>X>X%X%X>X>X>X%X%X>X>X>X%X%X>X>X%X%X>X>X%X%X>X>X>X%X%X>X>X%X%X>X>X>X%X%X>X>X>X%X>X>X>X",
"@XoX>X4X>X}.#X4X4X#X}.%X4X2X@X@X>X4X>X}.#X4X4X#X}.>X4X>X@X@X2X4X%X}.#X4X4X#X}.>X2X@X@X2X4X%X}.#X4X4X#X}.>X4X>X}.@X2X4X%X}.#X4X4X",
"%X%X>X>X>X%X%X>X>X*X%X>X>X>X%X%X>X>X>X%X%X>X>X%X%X>X>X>X%X%X>X>X>X%X%X>X>X%X%X>X>X%X%X>X>X>X%X%X>X>X%X%X>X>X>X%X%X>X>X>X%X>X>X>X",
"4X4X%X}.%X4X2X#X@X>X4X>X@X#X4X4X#X}.;X4X2X@X@X2X4X%X}.#X4X4X#X}.>X4X>X}.@X2X4X#X#X4X4X#X}.>X4X>X@X@X2X4X%X}.#X4X4X#XXX>X4X>X@X@X",
"2X4X%X#X%X4X2X#X#X>X4X>X#X#X2X4X%X#X>X4X2X#X#X2X4X<X=X>X4X4X:X=X<X4X2X=X=X4X4X>X%X4X4X%X#X>X4X>X#X#X2X4X>X#X%X4X2X#X#X>X4X>X#X#X",
"#X#X>X4X>X#X#X2X4X%X@X%X4X2X#X#X>X4X>X@XOX:X=X&X(.w.a.p.q.q.p.p.q.q.q.p.a.a.~ _.<X|.|.$X1X>X@X#X4X4X#X@X>X4X>X#X#X2X4X%X@X%X4X4X",
"@X@X>X4X>X@X#X4X4X#X}.%X4X2X@X@X>X4X#Xp.7.~ 7.T f.y.Y E W 7.T E W W 7.W Y H 9.i.W ~ ! 7.T.#X@X#X4X4X#X@X>X4X>X@X@X2X4X%X}.%X4X4X",
">X>X>X#X>X>X>X%X%X>X,X>X%X%X>X>X%X%X>X! 5.h.f.t.s.x m 8.y.8.Q y.y.7.Q H k x x i.d.d.h.5.Q =X2X>X%X%X>X>X>X#X%X>X>X%X#X>X,X>X%X%X",
"4X4X#X}.%X4X2X@XoX>X4X>X}.#X4X4X#X}.>X$XY.5.g.d.u.k U J ~ Q J J R U H H J c k u.d.g.5.U.|.>X4X>XXX@X2X4X%X}.#X4X4X#X}.>X4X>X}.@X",
">X>X>X%X>X>X>X%X%X>X>X>X%X%X>X>X>X%X%X2X2XI.j d.u.v 7.8.y.x ! 8.~ 8.Q U u.H k 9.t.j I.2X>X=X>X>X%X%X>X>X>X%X>X>X>X*X%X>X>X>X%X%X",
"@X@X>X4X>X+X#X4X4X#X}.%X4X2X@X}.>X4X;X}.@X4X`.h 6.W g T Y a J W T g W T E a j 6.h ^.#X9X4X%X}.#X4X4X@X}.>X4X>X@X@X2X4X%X}.#X4X4X",
"#X#X>X4X>X#X#X2X4X%X#X%X2X4X>X>X4X4X2X>X2X4X4X-X].W T T E W T T E E T E E W W ].1X4X>X4X4X2X>X2X4X4X,X#X*X4X>X#X#X2X4X%X#X%X4X2X",
"4X4X%X@X%X4X2X#X#X>X2X2X#X/.`.`./.^./.`._.^.^.`.`.(.Y.^._.).^.Y./._.'._._.).).)./.`.`./.^.'.`._.^.^._.2X>X}.%X4X4X#X@X>X4X>X@X#X",
"4X4X%XXX%X4X2X#X@X>X4X[.I.t 3 7 7 7 7 3 2 7 3 2 2 7 7 7 7 7 7 7 7 7 7 7 7 7 7 2 2 2 3 3 3 7 7 7 7 7 t Y. X,X#X4X4X#X@X>X4X>X@X@X",
"%X#X>X2X>X#X%X>X>X%X0.I P G.J.G.K.P.P.!.!.!.!.!.!.!.!.!.!.!.!.!.Q.!.!.!.!.!.!.!.!.!.!.!.!.P.P.K.J.K.H.Z I p.%X#X%X>X2X>X#X%X>X>X",
"@X@X>X4X>X}.#X4X4XU.0 v.P.) F O.) { X.l.S.B.B.B.B.B.B.B.B.B.B.B.B.B.B.B.B.B.B.B.B.A.A.A.x.l. ._ O.^ _ P.n.e Y.>X@X2X4X%X}.#X4X4X",
"%X%X>X>X>X%X%X2X^.P l.O.o.o.{ X.X.l.v.l.Z.K.K.K.K.K.K.K.K.K.K.K.K.K.K.K.K.K.K.K.K.K.K.m.l.v.l.X.X.{ l.o. .l.K Y.>X>X>X>X%X>X>X>X",
"4X4X#X}.%X4X2X%Xy n.o._ l.v.B 0 e r r r e z c z c c z z z c c c z c c c c c c c c c z r r r r r 0 B v.l.{ o.c.i 4X@X}.>X4X>XXX@X",
"2X2X%X#X%X4X>X>Xi o.B.l.v.^ @ @ + + + + + O O O O O O O O O O O O O O O O O O O O O O + O + + + + @ ^ v.o.B.X.i 4X#X#X>X4X>X#X#X",
"#X@X>X4X>X@X#X4Xi l.R.B.^ > l A G G ( ) ) ) ) ) ) ) ) ) ) ) ) ) ) ) ) ) ) ) ) ( ( ( ( ( ( ( G G A l > P B.R.l.y =X2X4X%X@X%X4X4X",
"#X@X>X4X>X@X#X4Xi z.v.J.m ; B Z ) ( 4 @ # # # # # # # @ # # @ # # @ # # @ # # @ @ # # # + 5 ( ) Z b ; m K.v.c.9 %X2X4X%XXX%X4X4X",
",X2X%X#X*X2X>X>Xy z.D.J.m + D F ( 2 2 q 0 0 0 0 0 0 0 e : e _ 2 2 _ e ; q 0 0 0 0 0 0 0 0 > 2 ( F D + m K.D.x.y 4X#X#X>X2X>X#X#X",
"4X4X#X}.%X4X2X%Xy l.L.K.c + D ' 0 > A F ) Z D ) ( D F ) z v m.e e m.v z ) F D ^ ) D Z ) F B > 5 ) A @ c K.R.l.y 4X@X}.>X4X>XXX@X",
">X>X>X>X>X>X>X2Xy l.K.K.c @ ] l > D ( z e r e 0 4 0 0 0 : v z.r e v.n : 0 0 0 4 0 e r e l ( D : e ) @ c K.K.x.y 2X%X%X>X>X>X>X>X",
"@X@X>X4X>X}.@X4Xi l.K.K.c @ { q > ) z V _ ^ ^ C C C C L q ` K.c c K._ q L C C C C ^ ^ _ V z ( : q { @ c K.K.x.9 %X2X4X%X}.#X4X4X",
"#X#X>X4X>X#X#X4Xi l.K.K.c @ } n ; ' l P _ X.M.B.B.B.B.v.n _ Q.c c Q._ n v.B.B.B.B.b.X._ P r ' : n { @ c K.K.x.y >X>X2X%X#X%X2X2X",
"4X4X%X}.%X4X2X%Xy l.K.K.c @ } V : ) r L b.D.D.D.D.D.D.S.v _ ~.c c ~._ v S.H.D.D.D.D.D.b.P e ) > m } @ c K.K.x.y 4X#X}.>X4X>X@X@X",
"%X%X>X>X>X%X%X4Xy l.K.K.c @ } V ; ) e ^ B.A.b.b.b.b.B.B.n / H.c c H./ n B.A.b.b.b.M.A.B.^ r ( ; m } @ c K.K.x.y <X>X>X>X%X;X>X>X",
"@X}.>X4X>X}.@X4Xi l.K.K.c @ } V ; ( l x.D.V.S.B.S.S.V.D.` _ ~.c c ~._ ^ D.S.A.A.B.S.B.S.x.l ( : V } @ c K.K.x.8 #X2X4X%X}.#X4X4X",
"=X%X>X>X>X>X%X4Xy l.K.K.c @ } V : ] l v.P.K.K.K.K.K.K.L.` ` !.c c !._ ^ P.K.K.K.K.K.K.L.v.l } : m } @ c K.K.x.y 2X>X>X>X%X>X>X>X",
"4X4X#X}.%X4X2X%Xy l.K.K.c @ } V : ( l x.D.S.S.S.S.S.S.S.v  .L.r c L.[ v S.S.A.S.S.S.A.D.x.l ( : V } @ c K.K.l.i 4X#X}.>X4X>X}.@X",
"2X2X%X#X%X2X>X>Xy l.K.K.c @ } V : ) l v.H.S.D.D.S.D.D.c.l P H.c M D.P r c.D.D.S.D.D.D.H.v.l ) : V } @ c K.K.x.y 4X#X#X>X4X>X#X#X",
"#X@X>X4X>X@X#X4Xi l.L.K.c @ } V ; ( l c.H.S.D.S.D.J.P 6 6 1 P t t I 1 6 2 P H.D.S.D.S.H.v.l ( : m } @ c K.K.c.y %X2X4X%X+X%X4X4X",
"#X#X>X4X>X#X#X4Xi l.K.K.c @ } V : { l c.H.S.S.D.D.C ..C.Z.C.l.0 t l.C.Z.C...K D.D.D.S.H.v.l { : m } @ c K.K.c.y :X2X4X%X@X%X4X4X",
"2X4X%X#X%X4X2X>Xy l.K.K.c @ } V : ) l c.H.S.D.H.c ..{ % s s < X.X.< % s % O.X.c D.D.S.H.v.r ^ : m } @ c K.K.x.y 4X#X#X>X4X>X#X#X",
"4X4X%X}.%X4X2X%Xy l.K.K.c @ } V ; ) l c.H.S.D.n c.z.* *.,.e.-.& * ,.e.,.*.* Z.c.n D.S.H.v.l ) : V } @ c K.L.x.y 4X@X}.>X4X>X@X@X",
"%X%X>X>X>X%X%X4Xy l.K.K.c @ } V ; ) l c.H.S.D.1 B.n f 3.r.3.e.-.,.e.3.r.3.f K B.1 D.S.H.v.l ( ; V } @ c K.L.c.y <X>X>X>X%X>X>X>X",
"@X@X>X4X>X}.@X4Xi l.L.K.c @ } V ; { z c.H.S.D.6 / & &.1.3.>.>.4.4.>.>.3.1.&.& ^ 6 D.S.D.v.l ' : V } @ c K.K.c.8 #X2X4X%X}.#X4X4X",
"%X%X>X>X>X%X%X4Xy l.K.K.c @ } m : ) l c.H.S.D.6 [ & =.:.>.<.2.<.<.<.<.>.:.&.& ) 2 D.S.D.v.r ( > m } @ c K.L.c.y >X>X>X>X%X:X>X>X",
"4X4X%X}.%X4X2X%Xy l.K.K.c + { V : ( l c.H.S.D.6 X.c d ;.2.<.2.2.<.2.<.2.;.d m o.2 D.S.D.v.l ) ; V } @ c K.L.x.y 4X#X}.>X4X>X@X@X",
"4X4X%X#X%X4X2X>Xy l.K.H.r @ } V ; ) z v.J.D.D.^ 7 v., &.1.2.<.2.2.<.2.:.&., m.t ` D.D.J.v.z ) : V } @ r K.P.x.y 4X#X#X>X4X>X#X#X",
"#X#X>X4X>X#X#X4Xi l.R.V.r @ } V ; ( z  .M.b.S.B.v K [ % =.<.2.<.<.2.1.&.% [ K v B.D.b.b...z ( ; V } @ r D.R.c.y >X2X4X%X@X%X4X4X",
"@X@X>X4X>X@X#X4Xi l.G.B.w @ { V : { l b.R.K.B.D.B.l r v d %.:.2.2.:.%.d n c c B.S.B.K.P.B.z { : V } ; w Z.D.c.8 %X2X4X%X}.%X4X4X",
">X>X>X%X>X>X>X>Xy X.V.l.0 # { V : ) l v.P.L.~.B.S.l.q l N $ f ;.;.f , S v e n.D.B.P.P.P.v.r ) > V } ; 3 l.D.o.y 4X%X%X>X>X>X%X%X",
"4X4X#X}.%X4X2X%Xy / n.o.0 # { V ; ( z x.D.A.J.R.m.D.n.0 2 ( , f f : ) 6 0 n.V.B.W.D.B.D.x.l ( ; V } ; 0 j.v./ i 4X@X}.>X4X>X}.@X",
">X>X>X%X:X>X>X,Xy Z l.o.0 ; { n ; ( z v.H.S.S.D.K.B.S.X.q 0 N < < N 3 q o.S.M.J.H.S.D.H.v.l G ; n } ; 0 j.k.S i 4X%X%X>X>X>X%X%X",
"@X@X>X4X>X@X@X4Xp B X.o.0 ; ] l : { l c.H.S.D.S.P.n.v.S.n P P 0 4 P P n V.b.n.P.S.D.S.H.v.l } > z { ; 0 j.X.Z y %X2X4X%X}.#X4X4X",
"#X#X>X4X>X#X#X4Xi Z o.o.0 ; ] l : ) l c.H.S.D.S.K.M.n.S.c  .V.r r B. .c S.n.b.K.S.D.S.H.v.l ' > z { ; 0 X.o.Z y >X<X4X%X#X%X4X2X",
"4X4X%X@X%X4X>X%Xi Z l.l.0 # { z ; G l c.H.S.D.S.L.M.v.S.v ` E.v c K./ v S.v.b.L.S.D.S.H.v.l ( : z { ; 0 j.k.Z p 4X#X#X>X4X>X#X#X",
"4X4X%XXX%X4X4X X. n ( ) 2 ; { z ; G l c.H.S.D.S.L.M.v.S.v _ !.c z !.[ c S.v.b.L.S.D.S.H.v.z ( ; z { ; 2 ) ( n . }.,X}.>X4X>X@X@X",
"#X#X>X,X>X>X/.#.O. .{ o.0 ; ] e : { z c.H.S.D.S.L.M.v.S.v _ Q.c c Q._ c S.v.M.L.S.D.S.H.v.l } : r { ; w l.O.X.O.N./.4X%X#X%X>X>X",
"@X@X>X4X>X>XU e Z.( j.j.e ; ] e : ( l v.J.S.D.S.L.M.v.S.v _ G.c c D._ v S.v.b.L.S.D.S.H.v.l ( > e } ; r l.l._ V.l R 4X#X}.#X4X4X",
"#X#X>X4X*X>XU l j.A F D 0 ; ] e ; G l c.D.S.S.S.K.x.x.S.c _ ~.c c E._ c S.x.v.K.A.S.S.D.c.l G : e ] # w F F Z l.z U 4X%X%X>X>X>X",
"#X@X>X4X>X>X$.5 l.} { j.e 1 j.z 2 { n F.R.R.R.P.!.D.B.L.V ..{.m m {...V L.A.D.Q.L.R.P.R.b.n { 2 z j.2 r l.} O.l.2 $.=X>X4X>X@X@X",
"#X#X>X4X>X@X>XY.  X o X     - X   - O 7 r r r r c q 0 r O 1 n @ + v 2 O e 0 0 z e r r r 7 O -   X -     o X O   Y.0X@X>X4X>X#X#X",
"4X4X%X@X%X4X4X}.#.I.U.0.#.@.I.U.@.+.0.I.@.+.+.@.0.#.+.+.U.I.+.#.0.I.@.#.+.p.I.p.0.+.+.@.U.0.#.@.U.I.@.#.0.U.I.#.}.4X4X%X@X%X4X4X",
"4X4X%X}.%X4X2X#X>X4X4X2X>X>X4X4X>X>X2X4X4X>X>X4X4X2X>X<X4X4X<X>X2X4X2X>X>X4X4X4X4X>X>X4X4X2X>X>X4X4X>X>X2X4X4X>X#X2X4X%X}.%X4X4X",
"%X%X>X>X>X%X%X>X>X%X#X%X>X>X#X#X>X>X%X#X#X>X>X#X#X%X>X*X#X#X>X>X%X#X#X>X>X#X#X#X#X>X>X#X#X%X>X:X#X#X:X>X%X#X#X>X>X%X%X>X2X>X%X%X",
"@X}.>X4X>X}.#X4X4X#X}.%X4X2X@X@X>X4X>X}.#X4X4X#X}.>X4X,X@X@X2X4X%X}.#X4X4X@X@X}.#X4X4X#X}.>X4X>X@X@X2X4X%X}.#X4X4X#X}.>X4X>XoX@X",
"%X%X>X>X>X%X%X>X>X>X%X>X>X>X%X%X>X>X>X%X%X>X>X%X%X>X>X>X%X%X>X>X>X%X%X>X>X%X%X%X%X>X>X%X%X>X>X>X%X%X>X>X>X%X>X>X>X%X%X>X>X>X%X%X",
"4X4X%X}.%X4X2X#X@X>X4X>X@X#X4X4X#X+X;X4X2X@X@X2X4X>X}.#X4X4X#X@X>X4X>X@X@X4X4X4X2X@X@X2X4X>X.X#X4X4X#X@X>X4X>X@X@X2X4X%X@X%X4X4X",
"4X4X%X@X%X4X2X#X#X>X4X>X@X#X4X4X#X@X>X4X2X#X#X2X4X>X@X#X4X4X#X@X>X4X>X@X#X4X4X4X2X#X#X2X4X>X@X#X4X4X#X@X>X4X>X@X#X2X4X%X@X%X4X4X"
};
