/* XPM */
static const char *player3[] = {
/* columns rows colors chars-per-pixel */
"64 64 182 2 ",
"   c #040507",
".  c #05090D",
"X  c #030D19",
"o  c #0F171D",
"O  c #15181E",
"+  c #31090F",
"@  c #191E24",
"#  c #2F1F23",
"$  c #1D2126",
"%  c #1E2429",
"&  c #12273C",
"*  c #22252B",
"=  c #25292E",
"-  c #252C33",
";  c #2A2E34",
":  c #2B3037",
">  c #2D333B",
",  c #303336",
"<  c #31353C",
"1  c #37393D",
"2  c #3A3B3D",
"3  c #55131C",
"4  c #71000E",
"5  c #5C343C",
"6  c #112A42",
"7  c #043A5C",
"8  c #2A3543",
"9  c #2F3842",
"0  c #333B44",
"q  c #3B3E43",
"w  c #353F48",
"e  c #3E4145",
"r  c #37404A",
"t  c #3A424C",
"y  c #3D4651",
"u  c #3F4851",
"i  c #184F6F",
"p  c #434345",
"a  c #41464B",
"s  c #45494D",
"d  c #4B4B4D",
"f  c #434B55",
"g  c #4A4E53",
"h  c #454E59",
"j  c #514F54",
"k  c #4D5155",
"l  c #46515B",
"z  c #4A535C",
"x  c #515355",
"c  c #52565A",
"v  c #5E575C",
"b  c #53595D",
"n  c #5B5C5E",
"m  c #61555A",
"M  c #4C5662",
"N  c #4E5964",
"B  c #555C62",
"V  c #5B5E62",
"C  c #545E69",
"Z  c #675F61",
"A  c #5C6166",
"S  c #56626D",
"D  c #5C646C",
"F  c #5F686E",
"G  c #5B6570",
"H  c #5C6873",
"J  c #616365",
"K  c #616669",
"L  c #6A666A",
"P  c #63696E",
"I  c #6B6B6C",
"U  c #7A6E6F",
"Y  c #646C73",
"T  c #6A6E72",
"R  c #626E79",
"E  c #736D70",
"W  c #6A7174",
"Q  c #677179",
"!  c #6C757C",
"~  c #737374",
"^  c #7C7171",
"/  c #73777B",
"(  c #72797E",
")  c #7B7B7B",
"_  c #8E0011",
"`  c #AA091E",
"'  c #A82A3E",
"]  c #96404F",
"[  c #EE4B60",
"{  c #FD4A63",
"}  c #3F7C9F",
"|  c #6D7882",
" . c #747D84",
".. c #7B7F83",
"X. c #737F89",
"o. c #3380AE",
"O. c #778087",
"+. c #7B8286",
"@. c #778288",
"#. c #7C858B",
"$. c #738889",
"%. c #7F8890",
"&. c #4F97C1",
"*. c #54AADA",
"=. c #838282",
"-. c #80878E",
";. c #828A8F",
":. c #8A8A8B",
">. c #838C93",
",. c #8B8F93",
"<. c #869096",
"1. c #899196",
"2. c #8C949B",
"3. c #8E999F",
"4. c #959596",
"5. c #9A9798",
"6. c #91999E",
"7. c #8A9FA2",
"8. c #959EA3",
"9. c #989FA5",
"0. c #96A0A6",
"q. c #99A1A6",
"w. c #9BA4A9",
"e. c #9DA9AE",
"r. c #A4A4A4",
"t. c #A8A8A7",
"y. c #A0A6AC",
"u. c #A1AAAF",
"i. c #AAAAAA",
"p. c #B5A7A8",
"a. c #A4ACB1",
"s. c #A8B1B6",
"d. c #A7B3B9",
"f. c #ACB6BB",
"g. c #AEB8BE",
"h. c #B5B5B4",
"j. c #B5B7B9",
"k. c #B2BABF",
"l. c #BBBBBB",
"z. c #8BBCD9",
"x. c #B1BBC1",
"c. c #C0BFC0",
"v. c #B5C0C6",
"b. c #B9C5CB",
"n. c #BDCBD2",
"m. c #AED7F0",
"M. c #B6DEF5",
"N. c #C4C3C3",
"B. c #CCCBCB",
"V. c #D0CFCF",
"C. c #D0D0CF",
"Z. c #C1CDD2",
"A. c #CAD5DC",
"S. c #D2D1D1",
"D. c #DCDBDC",
"F. c #D6E4EA",
"G. c #E5E5E5",
"H. c #E7E8E7",
"J. c #E8E8E7",
"K. c #E8E7E8",
"L. c #E7E8E8",
"P. c #EAEBEA",
"I. c #F7E7E6",
"U. c #EFF0EF",
"Y. c #F0F0EF",
"T. c #EFEFF0",
"R. c #F0EFF0",
"E. c #EFF0F0",
"W. c #F2F3F2",
"Q. c #F3F4F3",
"!. c #F3F4F4",
"~. c #F4F4F4",
"^. c gray97",
"/. c #F7F8F7",
"(. c #F8F8F7",
"). c #F7F7F8",
"_. c #F8F7F8",
"`. c #F7F8F8",
"'. c #F9F9F9",
"]. c #FBFBFB",
"[. c gray99",
"{. c #FEFEFE",
/* pixels */
"P.P.P.'.{.{.~.P.P.W.{.{.{.P.P.P.{.{.{.W.P.P.~.{.{.'.P.P.P.{.{.{.P.P.P.'.{.{.~.P.P.W.{.{.{.P.P.P.'.{.{.W.P.P.~.{.{.'.P.P.P.{.{.{.",
"P.P.P.'.{.{.~.P.P.W.{.{.{.P.P.P.'.{.{.W.P.P.~.{.{.'.P.P.P.{.{.{.P.P.P.'.{.{.~.P.P.U.{.{.{.P.P.P.'.{.{.W.P.P.!.{.{.'.P.P.P.{.{.{.",
"P.P.P.'.{.{.~.P.P.E.{.{.{.P.P.P.{.{.{.W.P.P.~.{.{.'.P.P.P.{.{.{.P.P.P.'.{.{.~.P.P.U.{.{.{.P.P.P.{.{.{.W.P.P.~.{.{.'.P.P.P.{.{.{.",
"'.'.'.W.P.P.~.'.'.~.P.P.W.'.'.'.W.P.P.~.'.'.~.P.P.W.'.'.'.P.P.P.'.'.'.W.P.P.~.'.'.~.P.P.W.'.'.'.W.P.P.~.'.'.~.P.P.W.'.'.'.P.P.P.",
"{.{.{.W.P.P.~.{.{.'.P.P.P.{.{.{.P.P.P.'.{.{.~.P.P.W.{.{.{.P.P.P.{.{.{.W.P.P.~.{.{.'.P.P.P.{.{.{.P.P.P.'.{.{.~.P.P.W.{.{.{.P.P.P.",
"{.{.{.W.P.H.~.{.{.'.P.P.P.{.{.{.P.P.H.'.{.{.~.P.P.P.{.{.{.P.P.P.{.{.{.W.P.J.~.{.{.'.P.P.P.{.{.{.P.P.J.'.{.{.~.P.P.P.{.{.{.P.P.P.",
"~.~.~.~.~.!.~.W.W.~.~.~.~.~.~.~.~.~.~.~.Q.W.~.~.~.~.W.~.~.~.~.~.~.~.W.~.~.~.~.W.Q.~.~.~.~.~.~.~.~.~.~.~.W.W.~.~.~.~.~.!.~.~.~.~.",
"P.P.H.'.{.{.~.P.P.T.{.{.{.P.P.P.{.{.{.W.P.L.~.{.{.'.P.P.P.{.{.{.P.P.P.'.{.{.~.P.P.T.{.{.{.P.P.P.{.{.{.W.P.P.~.{.{.'.P.P.P.{.{.{.",
"P.P.L.'.{.{.~.P.P.P.{.{.{.P.P.P.{.{.{.W.P.H.~.{.{.'.P.P.P.{.{.{.P.P.P.'.{.{.~.P.P.P.{.{.{.P.P.P.{.{.{.W.P.P.!.{.{.'.P.P.P.{.{.{.",
"W.W.P.~.'.'.~.P.U.W.'.'./.W.W.W.~.'.'.W.P.P.~.'.'.~.U.E.W.'.'.'.W.W.P.~.'.'.~.E.U.W.'.'./.W.W.W.~.'.'.W.R.U.~.'.'.~.W.W.W.'.'.'.",
"{.{.{.W.P.P.~.{.{.'.P.P.P.{.{.{.P.P.P.'.{.{.~.P.P.R.{.{.{.P.P.P.{.{.{.W.P.P.~.{.{.'.P.P.P.{.{.{.P.P.P.'.{.{.~.P.P.W.{.{.{.P.P.P.",
"{.{.{.W.P.P.~.{.{.'.P.P.P.{.{.{.P.P.P.'.{.{.~.P.P.W.{.{.{.P.P.P.{.{.{.W.P.P.~.{.{.'.P.P.P.{.{.{.P.P.P.'.{.{.~.P.P.W.{.{.{.P.P.P.",
"{.{.{.W.P.P.~.{.{._.P.P.P.{.{.{.P.P.P.~.{.{.~.P.P.W.{.{.'.P.P.P.'.{.{.W.P.P.~.{.{.'.P.P.P.{.{.{.P.P.P._.{.{.~.P.P.W.{.{.'.P.P.P.",
"P.P.P.'.{.{.~.P.P.W.{.{.'.P.P.P.'.{.{.W.P.P.~.{.{.'.P.P.P.{.{.{.P.P.H.~.{.{.~.P.P.W.{.{.'.P.P.P.'.{.{.W.P.P.~.{.{.'.P.P.P.{.{.{.",
"P.P.P.'.{.{.~.P.P.W.{.{.{.P.P.P.'.{.{.P.K.H.W.{.{.~.L.P.P.{.{.{.'.~.).'.{.{.~.P.P.U.{.{.{.P.P.P.{.{.{.W.P.P.Q.{.{.'.P.P.P.{.{.{.",
"P.P.P.'.{.{.~.P.P.W.{.{.{.P.P.W.{.{.{.'.~.W.{.{.{.{.W.~.~.{.{.W.i.i.t.P.{.{.~.P.P.U.{.{.{.P.P.P.{.{.{.W.P.P.Q.{.{.'.P.P.P.{.{.{.",
"'.'.'.W.P.P.~.'.'.~.P.P.W.'.'.l.L ~ I j.C.S.B.N.N.B.S.B.S.N.B.5.* c k c G.P.W.'.'.~.P.P.P.'.'.'.W.P.P.~.'.'.~.P.P.W.'.{.'.P.P.P.",
"{.{.{.W.P.P.~.{.{.'.P.P.P.{.Q.g ;.<.0.s k s k x e b e k a c b * z A ! e ) {.W.{.{.'.P.P.P.{.{.{.P.P.P.'.{.{.~.P.P.W.{.{.{.P.P.P.",
"{.{.{.W.P.H.W.{.{.'.P.P.P.{.~.2 g g c e k.3.0.k.>.v.>.a.>.x.Y % b A Y W a l.~.{.{.'.K.P.P.{.{.{.P.K.H._.{.{.Q.P.P.P.{.{.{.P.P.P.",
"W.W.W.~.'.{.'.W.W.~.~.~.~.~.G.g 0.1.>.1 z f f B t B t z f f o r R #.1.b.<.I {.~.~.'.'.{.P.j.N.c.W.{.'.'.~.~.'.~.~.~.W.W.W.~.~.~.",
"P.P.P.'.'.P.D.P.P.P.{.{.'.H.W.T $ q ( O. . . . . . . . . . .O.+. . .#.a b ~ G.B.V.S.P.G.=.=.q g ,.l.P.S.B.V.D.{.{.'.P.P.P.{.{.{.",
"P.P.H.{.:.s c ~ ~.{.{.{.{.{.N.s 0 A k.f.f.f.f.g.f.g.f.f.f.f.f.f.g.d.Z.F - , W P T L 0 p g.*.& / n.z 2 W I T e :.{.~.P.P.P.{.{.{.",
"W.W.P.{.) #.A.z J l.j.j.j.l.j y M B u.8.9.0.9.9.9.9.0.9.9.9.9.q.q.8.f.Y t B b.g.g.x.N U M.i   P b.>.A b.g.d.2. .5.{.W.W.W.~.~.~.",
"{.{.{.{.~ +.v.1.s T A B P s @ z h B a.q.w.w.w.w.w.w.w.w.w.w.w.w.w.9.x.F t b e.8.w.1.t ^ M.o.X T a.1.A y.9.8.<.v.J D.{.{.{.K.K.K.",
"{.{.{.{.~ ;.d.>.! e.8.8.w.X.: z l B a.q.w.w.w.w.w.w.w.w.w.w.w.w.w.9.x.F t b a.q.u.3.t L R.z.8 F g.( b a.w.q.%.x.;.I {.{.{.P.P.P.",
"'.'.~.{.) W s.1.K 8.1.>.6.! - z l B a.q.w.w.w.w.w.w.w.w.w.w.w.w.w.9.x.F t b a.6.A q. .r 4.I.Z u Y f >.e.w.9.>.g.e.J N.'.~.P.P.P.",
"~.~.Q.{.) 9 #.! h ! Y R R R : l l B a.q.w.w.w.w.w.w.w.w.w.w.w.w.w.9.x.F t b a.e.2.P w.! a j , ; t 1.a.w.w.9.>.f.a.K r.T.G.P.P.P.",
"{.{.{.{.) t G l - r 0 0 w l = z l B a.q.w.w.w.w.w.w.w.w.w.w.w.w.w.9.x.F t c a.<.s.z q.w.#.Q ! -.q.e.w.w.w.9.>.f.a.A r.P.G.P.P.P.",
"'.'.~.{.) 9 C t x J V n V A ; z l B a.q.w.w.w.w.w.w.w.w.w.w.w.w.w.9.x.P t c s. .0.B w.q.u.f.s.a.a.q.w.w.w.9.>.f.a.A t.W.H.P.P.P.",
"P.P.H.{.D.x s :.(.'.{.{.{.{.) t z B a.q.w.w.w.w.w.w.w.w.w.w.w.w.w.9.x.P t b a.#.e.b q.a.8.! +. .#.u.w.w.w.9.>.f.a.A i.~.P.{.{.{.",
"P.P.P.'.{.{.W.P.P.P.{.'.~.~.~ y z B a.q.w.w.w.w.w.w.w.w.w.w.w.w.w.9.x.P t b a.w.a.c a.+.L 4.a B P  .a.w.w.9.>.f.a.A i.~.P.{.{.{.",
"P.P.P.~.{.{.{.P.P.W.{.{.~.'.~ y z B a.q.w.w.w.w.q.q.q.w.w.w.w.y.w.9.x.P t b a.8.F 1.>.g k.*.6 ~ F.(  .u.w.8.>.f.a.K i.~.P.{.{.{.",
"{.{.{.'.t.I :.{.{.~.P.P.P.{.) t z B a.q.w.w.w.w.w.e.u.w.w.w.0.7.e.9.x.F t b a.6.;.s.z ^ M.7 . Y v.3.b a.w.q.@.e.a.A j.{.'.P.P.P.",
"{.{.{.{.I T 8.=.'.'.P.P.P.{.) t z B a.q.w.w.w.w.q.f b w.y.#.# 3 m w.k.F t b a.w.a.3.y U m.} . R a.>.A u.q.q. .9.s.A l.{.'.P.P.P.",
"{.{.{.{.~ ;.A. .n L J A J V ; z l B a.q.w.w.w.w.b A ( F f.s _ [ ] v b.F t b a.q.w.8.t E D.&.& T f.( c s.w.q. .q.s.A j.{.'.P.P.P.",
"P.P.P.{.) +.d.1.F 8.1.>.8.R * z l B a.q.w.w.w.w.t ..2.s g.p ` { ' d b.F t b a.w.w.u.Q f p.I.L z #.< ( 3. .9. .q.s.A i.'.P.'.'.'.",
"P.P.H.{.=.#.f.>.T 8.>.<.3.| ; z l B u.9.q.q.q.q.! > 0 #.a.R + 4 5 3.x.P r b a.q.q.q.9.C f ~ q - 0 +.u.C l <. .9.s.A t./.P.{.{.{.",
"P.P.H.{.=.f 8.>.A <.>.+.>.! ; h l A f.u.a.a.a.a.u.8.a.s.a.a.>.$.e.a.x.F r B f.a.a.a.a.u.! B S ( 6.s.a.3.1.a.@.w.a.A i./.P.{.{.{.",
"'.'.~.{.~ 0 R C w S N M C R : z z 0 A B B B B B B V B B B B A A B B B 0 l 0 V B B B B B V F A A A B B A A B a #.f.A h.{.~.W.W.E.",
"{.{.{.{.I u R f * ; - : : < O 0 9 : f f f f f f f f f h h f l l l l z t f : y h f f f f f f f f f f f f f l t t d.A j.{.'.P.P.P.",
"{.{.{.'.4.- 0 b N.N.l.l.l.B.N.$ 0 0 f G S D D D D G D D G D f f f f f r w f t H D G G G G G G D G G G G G G H z ! K j.{.'.P.P.P.",
"W.W.W.~.'.h.5.S.'.{.{.{.{.'.{...o - % t f u u y f t f u f - O > a b A b = z * 0 t r w w w r r r w w w r r r r r > * l.~.P.'./.~.",
"P.P.P.'.{.{.{.P.H.P.{.{.'.H.P.:.b b V ; g a g k e c e k e s ; w V W ( ! = < < ~ ~ / ) ) ) ~ ~ ~ ) ) ) ~ ~ ~ / ) ) 5.P.P.P.{.{.{.",
"P.P.H.'.{.{.W.H.P.U.{.{.{.P.D.e ..+.+.a a.2.8.s.#.k.%.w.>.q.q S  .>.e.b.a . 1 {.~.{.{.{.{.'.(.'.{.{.{.{.`.~.{.{.{.{.P.P.P.{.{.{.",
"~.~.Q.~.~.~.~.~.~.~.~.~.~.~.P.2 k c g , 8.#.%.8. .0. .2.! 8.c * t a h Y p :.l.W.W.W.W.W.W.W.W.W.W.W.W.W.W.W.W.W.W.W.~.~.~.~.~.~.",
"{.{.{.W.P.P.~.{.{.'.P.P.P.{.~.1 t f f * f t y f 0 l w u 0 z - > V V 6.>.2 ~.{.{.{.'.P.P.P.{.{.{.P.P.P.'.{.{.~.P.P.U.{.{.{.P.P.P.",
"{.{.{.E.P.P.~.{.{.'.P.P.P.{.{.l.- @ $ p n x V J V J c c V J V = 9 t y k h.W.P.{.{.'.P.P.P.{.{.{.P.P.P.'.{.{.~.P.P.W.{.{.{.P.P.P.",
"'.'.'.W.U.P.~.'.'.~.P.R.W.'.'.{.N.i.i.G.{.'.{.{.{.{.'.'.'.{.{.i.e x a 5.~.H.W.'.'.~.P.R.W.'.'.'.W.P.P.~.'.'.~.P.P.W.'.'.`.W.W.P.",
"P.P.P.'.{.{.~.P.P.W.{.{.{.P.P.H.~.'.'.'.{.{.W.H.H.P.{.{.'.L.H.W.'.{.{.~.P.P.P.P.L.U.{.{.{.P.P.P.{.{.{.W.P.P.~.{.{.'.P.P.P.{.{.{.",
"P.P.P.'.{.{.~.P.P.W.{.{.{.P.P.P.L.H.H.~.{.{.~.P.P.U.{.{.{.P.P.P.{.{.{.U.P.P.P.P.P.R.{.{.{.P.P.P.'.{.{.W.P.P.Q.{.{.'.P.P.P.{.{.{.",
"P.P.P.(.{.{.~.P.P.W.{.{.'.P.P.P.P.P.P.~.{.{.~.P.P.W.{.{.'.P.P.P.'.{.{.W.P.P.P.P.P.P.{.{.'.P.P.P.'.{.{.W.P.P.Q.{.{.'.P.P.P.{.{.{.",
"{.{.{.W.P.P.~.{.{.'.P.P.P.P.P.P.'.{.{.W.P.P.~.{.{.'.P.P.P.{.{.{.P.P.P.'.{.{.~.P.P.P.P.P.P.{.{.{.P.P.P.'.{.{.~.P.P.W.{.{.'.P.P.P.",
"{.{.{.W.P.P.~.{.{.'.P.P.P.P.P.P.{.{.{.W.P.P.~.{.{.'.P.P.P.{.{.{.P.P.P.'.{.{.~.P.P.P.P.P.P.{.{.{.P.P.P.'.{.{.~.P.P.W.{.{.{.P.P.P.",
"{.{.{.W.P.P.~.{.{.'.P.P.P.P.P.P.{.{.{.W.P.P.~.{.{.'.P.P.P.{.{.{.P.P.P.'.{.{.~.P.P.P.P.P.P.{.{.{.P.P.P.'.{.{.~.P.P.W.{.{.{.P.P.P.",
"P.P.P.~.'.'.~.P.P.P.P.P.P.'.'.'.W.P.P.~.'.'.~.P.P.W.'.'.'.P.P.P.'.'.'.W.P.P.P.P.P.P.'.'.'.P.P.P.'.'.'.W.P.P.~.'.'.~.P.P.W.'.'.'.",
"P.P.P.'.{.{.~.P.P.P.P.P.P.{.{.{.P.P.P.'.{.{.~.P.P.P.{.{.{.P.P.P.{.{.{.W.P.P.P.P.P.W.{.{.{.P.P.P.{.{.{.W.P.P.~.{.{.'.P.P.P.{.{.{.",
"P.P.P.'.{.{.~.P.P.P.P.P.P.{.{.{.P.P.J.'.{.{.~.H.H.P.{.{.{.P.P.P.{.{.{.W.P.P.P.P.P.W.{.{.{.P.P.P.{.{.{.W.P.H.~.{.{.'.P.P.P.{.{.{.",
"~.~.~.~.W.W.P.P.P.P.P.P.P.W.W.W.~.~.~.~.W.W.~.~.~.~.W.W.W.~.~.~.W.W.W.~.~.~.Y.P.P.P.W.W.Q.~.~.~.W.W.W.~.~.~.~.W.W.~.~.~.~.W.W.W.",
"{.{.{.P.P.P.P.P.P.P.P.P.P.P.P.P.{.{.{.W.P.P.~.{.{.'.P.P.P.{.{.{.P.P.P.'.{.{.~.P.P.P.P.P.P.{.{.{.P.P.P.'.{.{.~.P.P.W.{.{.{.P.P.P.",
"{.{.{.~.P.P.P.P.P.P.P.P.P.P.P.P.{.{.{.W.P.L.~.{.{.'.P.P.P.{.{.{.P.P.H.'.{.{.~.P.P.P.P.P.P.{.{.{.P.P.P.'.{.{.~.P.P.U.{.{.{.P.P.P.",
"'.'.'.~.P.P.P.W.W.P.P.P.P.W.W.W.~.'.'.W.W.E.~.'.'.~.W.W.W.'.~.).W.W.P.~.'.'.W.P.P.P.W.W.W.'.~._.W.W.W.~.'.'.~.W.W.W.'.'.~.W.W.W.",
"P.P.P.P.P.P.~.{.{.'.P.P.P.{.{.{.P.P.P.'.{.{.~.H.H.P.{.{.{.P.P.P.{.{.{.W.L.P.P.P.P.W.{.{.{.P.P.P.{.{.{.Y.L.H.~.{.{.'.K.P.P.{.{.{.",
"P.P.P.P.P.P.~.{.{.'.P.P.P.{.{.{.P.P.P.'.{.{.~.P.P.W.{.{.{.P.P.P.'.{.{.W.P.P.P.P.P.P.{.{.{.P.P.P.'.{.{.W.P.P.~.{.{.'.P.P.P.{.{.{.",
"P.P.P.P.P.P.~.{.{.'.P.P.P.{.{.{.P.P.P.'.{.{.~.P.P.W.{.{.{.P.P.P.'.{.{.W.P.P.P.P.P.R.{.{.{.P.P.P.'.{.{.W.P.P.~.{.{.'.P.P.P.{.{.{."
};
