/* XPM */
static const char *player4[] = {
/* columns rows colors chars-per-pixel */
"64 64 182 2 ",
"   c #040507",
".  c #05090D",
"X  c #09121B",
"o  c #15181E",
"O  c #31090F",
"+  c #191E24",
"@  c #2F1F23",
"#  c #1D2126",
"$  c #1E2429",
"%  c #12273C",
"&  c #22252B",
"*  c #25292E",
"=  c #252C33",
"-  c #2A2E34",
";  c #2B3037",
":  c #2D333B",
">  c #303336",
",  c #31353C",
"<  c #37393D",
"1  c #3A3B3D",
"2  c #55131C",
"3  c #71000E",
"4  c #5C343C",
"5  c #112A42",
"6  c #043A5C",
"7  c #2A3543",
"8  c #2F3842",
"9  c #333B44",
"0  c #3B3E43",
"q  c #353F48",
"w  c #3E4145",
"e  c #37404A",
"r  c #3A424C",
"t  c #3D4651",
"y  c #3F4851",
"u  c #184F6F",
"i  c #434345",
"p  c #41464B",
"a  c #45494D",
"s  c #4B4B4D",
"d  c #434B55",
"f  c #4A4E53",
"g  c #454E59",
"h  c #514F54",
"j  c #4D5155",
"k  c #46515B",
"l  c #4A535C",
"z  c #515355",
"x  c #52565A",
"c  c #5E575C",
"v  c #53595D",
"b  c #5B5C5E",
"n  c #61555A",
"m  c #4C5662",
"M  c #4E5964",
"N  c #555C62",
"B  c #5B5E62",
"V  c #545E69",
"C  c #675F61",
"Z  c #5C6166",
"A  c #56626D",
"S  c #5C646C",
"D  c #5F686E",
"F  c #5B6570",
"G  c #5C6873",
"H  c #616365",
"J  c #616669",
"K  c #6A666A",
"L  c #63696E",
"P  c #6B6B6C",
"I  c #7A6E6F",
"U  c #646C73",
"Y  c #6B6E72",
"T  c #626E79",
"R  c #736D70",
"E  c #6A7174",
"W  c #677179",
"Q  c #6C757C",
"!  c #737374",
"~  c #7C7171",
"^  c #73777B",
"/  c #72797E",
"(  c #7B7B7B",
")  c #8E0011",
"_  c #AA091E",
"`  c #A82A3E",
"'  c #96404F",
"]  c #EE4B60",
"[  c #FD4A63",
"{  c #3F7C9F",
"}  c #6D7882",
"|  c #747D84",
" . c #7B7F83",
".. c #737F89",
"X. c #3380AE",
"o. c #778087",
"O. c #7B8286",
"+. c #778288",
"@. c #7C858B",
"#. c #738889",
"$. c #7F8890",
"%. c #4F97C1",
"&. c #54AADA",
"*. c #838282",
"=. c #80878E",
"-. c #828A8F",
";. c #8A8A8B",
":. c #838C93",
">. c #8B8F93",
",. c #869096",
"<. c #899196",
"1. c #8C949B",
"2. c #8E999F",
"3. c #959596",
"4. c #9A9798",
"5. c #91999E",
"6. c #8A9FA2",
"7. c #959EA3",
"8. c #989FA5",
"9. c #96A0A6",
"0. c #99A1A6",
"q. c #9BA4A9",
"w. c #9DA9AE",
"e. c #A4A4A4",
"r. c #A8A8A7",
"t. c #A0A6AC",
"y. c #A1AAAF",
"u. c #AAAAAA",
"i. c #B5A7A8",
"p. c #A4ACB1",
"a. c #A7B0B5",
"s. c #A8B1B6",
"d. c #A7B3B9",
"f. c #ACB6BB",
"g. c #AEB8BE",
"h. c #B5B5B4",
"j. c #B5B7B9",
"k. c #B2BABF",
"l. c #BBBBBB",
"z. c #8BBCD9",
"x. c #B1BBC1",
"c. c #C0BFC0",
"v. c #B5C0C6",
"b. c #B9C5CB",
"n. c #BDCBD2",
"m. c #AED7F0",
"M. c #B6DEF5",
"N. c #C4C3C3",
"B. c #CCCBCB",
"V. c #D0CFCF",
"C. c #D0D0CF",
"Z. c #C1CDD2",
"A. c #CAD5DC",
"S. c #D2D1D1",
"D. c #DCDBDC",
"F. c #D6E4EA",
"G. c #E5E5E5",
"H. c #E7E8E7",
"J. c #E8E8E7",
"K. c #E8E7E8",
"L. c #E7E8E8",
"P. c #EAEAEA",
"I. c #EDEDED",
"U. c #F7E7E6",
"Y. c #EFF0EF",
"T. c #F0F0EF",
"R. c #EFEFF0",
"E. c #F0EFF0",
"W. c #EFF0F0",
"Q. c #F1F1F1",
"!. c #F3F3F3",
"~. c #F3F4F3",
"^. c #F4F4F4",
"/. c #F6F7F7",
"(. c #F7F8F7",
"). c #F8F8F7",
"_. c #F7F7F8",
"`. c #F8F7F8",
"'. c #F7F8F8",
"]. c #F9F8F9",
"[. c gray99",
"{. c #FEFEFE",
/* pixels */
"{.{.{.Q.P.P.Q.{.{.].P.P.P.{.{.{.I.P.P./.{.{./.P.P.W.{.{.].P.P.P.{.{.{.I.P.P.P.P.K./.{.{./.P.P.I.{.{.{.I.P.P.].{.{./.P.P.I.{.{.{.",
"{.{.{.Q.P.P.Q.{.{.].P.P.P.{.{.{.Q.P.P./.{.{.(.P.P.Q.{.{.{.P.P.P.{.{.{.I.P.P.P.P.K./.{.{./.P.P.I.{.{.{.I.P.P.].{.{./.P.P.I.{.{.{.",
"{.{.{.Q.P.P.Q.{.{.].P.P.P.{.{.{.Q.P.P./.{.{.].P.P.Q.{.{.].P.P.P.{.{.{.I.P.P.P.P.P./.{.{./.P.P.I.{.{.{.I.P.P.].{.{./.P.P.I.{.{.{.",
"I.I.I./.{.{./.I.I.Q.{.{.].I.I.I.'.{.{./.I.I.I.].]./.P.P.I.].].].P.P.P.H.G.G./.{.{.Q.I.I.Q.{.{.].I.I.I.].{.{.Q.I.I./.{.{.].I.I.I.",
"P.P.P.].{.{./.P.P.I.{.{.{.I.P.P.].{.{./.P.P./.{.{.{.).(.].{.{.{./././.Q.I.R.].{.{.Q.P.P.Q.{.{.].P.P.P.{.{.{.Q.P.P.Q.{.{.].P.P.P.",
"P.P.P.].{.{./.P.P.I.{.{.{.P.P.P.].{.{./.P.I.l.h.h.h.u.r.u.h.j.j.u.r.u.r.e.e.N.{.{.Q.P.P.Q.{.{.].P.P.P.{.{.{.Q.P.P./.{.{.].P.P.P.",
"].].].Q.Y.Q./.].]./.Q.Q.Q.].].].Q.Q.Y.Q.{.4.& J Z Z Z Z Z Z Z Z Z Z Z Z Z J H P D.{./.]./.I.Q.Q.].].].Q.Q.Q./.].]./.I.Q.Q.].].].",
"{.{.{.Q.P.P.Q.{.{.].P.P.P.{.{.{.I.P.P.Q.{.( : Q f.f.p.s.s.s.s.p.p.p.p.p.p.p.w.-.H 3.{.{./.P.P.I.{.{.{.P.P.P.].{.{./.P.P.I.{.{.{.",
"{.{.{.Q.P.P.Q.{.{.].P.P.P.{.{.{.I.P.P.Q.{.( e l r @.q.7.0.0.7.w.g.f.f.f.f.f.g.x.v.| ;.{./.P.P.I.{.{.{.P.P.P.].{.{./.P.P.I.{.{.{.",
"/././././././././././././.~.~././././.Q.{.^ e G r p +.| | | | +.:.:.:.:.:.:.:.$.,.1.w D.].~././.~.~./././././.Q././././././.Q./.",
"P.P.H.].{.{./.H.P.I.{.{.{.P.P.P.].{.{.Q./.! e F k N p.,.7.0.0.0.7.7.7.7.7.7.7.0.7.d.Y V./.{.{.].P.P.P.{.{.{.Y.P.P.Q.{.{.].P.P.P.",
"P.P.L.].{.{./.P.P.I.{.{.{.P.P.P.].{.{.Q.'.! e F d Z 1.k | q.0.q.q.q.q.q.q.q.q.q.7.g.P B./.{.{.].P.P.P.{.{.{.E.P.P.Q.{.{.].P.P.P.",
"Q.Y.T./.].]./.Q.Q.Q.].].].Q.Q.Q./.].].Q.{.! e F d Z 1.V 1.a.y.p.y.q.q.q.q.q.w.p.t.b.E S.].`.]./.Q.Q.Q./.].].Q.Q.Q.Q.].]./.Q.Q.Q.",
"{.{.{.Q.P.P.Q.{.{.].P.P.P.{.{.{.I.P.P.Q.{.( q F d N p.y./ x Z v | p.q.q.q.p.>.v Z Z 1 I.].H.P.I.{.{.{.P.P.P.].{.{.Q.J.P.I.{.{.{.",
"{.{.{.Q.P.P.Q.{.{.].P.P.P.{.{.{.I.P.P.Q.{.( q F d N a.O., / :.1./ | w.0.w.1.f / <.:.j l.{.H.P.I.{.{.{.I.P.P.].{.{./.P.P.I.{.{.{.",
"].].{.Q.I.I.Q.{.{.].I.I.I.].{.{.Q.I.I.Q.{.( q F d Z 5.9 @.g.p.v.F.L @.p.0.r U g.p.b.n.>.Q.I.I.E.{.{.].I.I.I./.{.{./.I.I.Q.{.].{.",
"P.P.P.].{.{./.P.P.I.{.{.{.I.P.P.].{.{.Q.].! e A d Z / - l Y U U ! N | p.=.- y S Y L ^ f c.{.{.].P.P.P.{.{.{.Q.P.P./.{.{.].P.P.P.",
"P.P.P.].{.{./.P.P.I.{.{.{.I.P.P.].{.{.Q.).! e F d Z A 0 K % . . 5 p O.s.Q > C 7 X   % 0 N.{.{.].P.P.P.{.{.{.Q.P.P./.{.{.].P.P.P.",
"P.P.P.].{.{./.P.P.I.{.{.{.I.P.P.].{.{.Q.].! e F d S N ! U.%.{ 6 &.3.Q f.W h U.z.X.u &.*.h.{.{.].P.P.P.{.{.{.Q.P.P./.{.{.].P.P.P.",
"{.{.{.Q.I.I.Q.{.{.].I.I.I.].{.{.Q.I.I.Q.{.( q F d B Q f i.D.m.M.k.K 7.y.@.p 3.E.M.M.g.*.I.I.I.I.{.{.].I.I.I.(.{.{./.P.I.Q.{.{.{.",
"{.{.{.Q.P.P.Q.{.{.].P.P.P.{.{.{.E.P.P.Q.{.( q F d N y.V f R I ~ f @.p.0.q.Q e K ~ I i G.{.P.P.I.{.{.{.I.P.P.].{.{./.P.P.I.{.{.{.",
"{.{.{.Q.P.P.Q.{.{.].P.P.P.{.{.{.I.P.P.Q.{.( q F d N p.7.W r t l :.p.0.q.0.q.| r r M 9 I.].K.P.I.{.{.{.I.P.P.].{.{./.P.P.I.{.{.{.",
"E.I.Q.I.P.P.I.Q.Q.I.P.P.P.I.E.Y./.].].Q.{.^ e F d N p.0.y.7.1.s.<.z v N j L 0.2.1.x.J S.].].]./.Y.Y.Q.].].].Q.I.R./.].]./.Y.Y.Q.",
"P.P.P.P.P.P.P.P.P.P.P.P.P.P.P.L.].{.{.Q./.! r A d N p.0.q.q.p.-.S p.w.9.s.1.Z y.q.g.U V./.{.{.].P.P.P.{.{.{.I.P.P.~.{.{.].P.P.P.",
"P.P.P.P.P.P.P.P.P.P.P.P.P.P.P.P.].{.{.Q.{.! 9 G g N p.0.q.0.q.5.7.q.@.| ,.w.5.0.7.g.L B./.{.{.].P.P.P.{.{.{.W.P.P.Q.{.{.].P.P.P.",
"P.P.P.Q././.T.P.P.I./././.P.P.P.Q.I.{.l.< , & r t B f.p.p.p.p.p.p.p.p.a.p.p.p.p.w.b.E G.{./.Q.Q././././././././././.Q./././././.",
"P.P.P.].{.{./.P.P.I.{.{.{.I.P.P.H.Q./.;.. , l d ; 9 N v v v v v v v v x x v v v v N > ! K j.{.I.{.{.{.P.P.K.].{.{./.J.P.I.{.{.{.",
"P.P.L.].{.{./.P.P.I.{.{.{.P.P.P./.h.1 i p * * q g k e e r r r r r r r r r r r r r e = v ,.p ( G.{.{.{.I.P.H.].{.{./.P.P.I.{.{.{.",
"Q.Q.Q./.].]./.Q.Q.Q.].].].Q.Y./.3.j :.U b.Q v e r 9 S L S S S D L L L L D S S S S U S p n.E w x I.]./.Q.Q.Q./.].]./.Q.Q.Q.].].].",
"{.{.{.I.H.P.Q.{.{.].P.P.P.{.{.{.p t 5.f w./ Z g l N x.x.b.b.k.x.x.x.x.x.x.x.x.x.x.g.Z.@.1.U Q j r._.H.{.{.{.I.P.P.Q.{.{.].P.P.P.",
"{.{.{.Q.P.P.Q.{.{.].P.P.P.{.{.{.z r B p :.Q v d k N p.2.s c q.8.7.7.7.7.7.7.7.7.8.7.f.| @.Z Z z u./.P.{.{.{.Q.P.P./.{.{.].P.P.P.",
"].].{.Q.I.I.Q.{.{.].I.I.I.].{.{.w 8 B r | B p d k N w.4 ` ' n w.q.q.q.q.q.q.q.q.q.0.g.| U v l & u.].P.].{.{.Q.I.I./.{.{.].I.I.I.",
"P.P.P.].{.{./.P.P.I.{.{.{.I.P.Q.u.* : & A q : d k Z #.3 [ ] 2 6.t.q.q.q.q.q.q.q.q.0.f.@.e $ & 3.Q.{.{.I.P.P.].{.{./.P.P.I.{.{.{.",
"P.P.P.].{.{./.P.P.I.{.{.{.P.P.H.{.B - z q - o d k Z :.O _ ) @ 9.q.q.q.q.q.q.q.q.q.7.g.o.o U v B.{.{.{.I.P.P.].{.{./.P.P.I.{.{.{.",
"P.P.P.].{.{./.P.P.I.{.{.{.I.P.L.{.H l 7.0.a = A d N p.T i a @.q.q.q.q.q.q.q.q.q.q.7.g.| g x.x N.{.{.{.I.P.P.].{.{./.P.P.I.{.{.{.",
"{.{.{.Q.I.I.Q.{.{.].I.I.I.].{.].{.B 9 Q >.w g F g N p.p.g.f.t.q.q.q.q.q.q.q.q.q.q.7.g.| d :.p S./.P.I.].{.{.Q.I.I./.{.{.].I.I.I.",
"{.{.{.Q.P.P.Q.{.{.].P.P.P.{.{.{.].v d 1.q.j y A g N a.@.a S q.q.q.q.q.q.q.q.q.q.q.7.g.| l p.j B./.P.P.{.{.{.W.P.P./.{.{.].P.P.P.",
"{.{.{.Q.P.P.Q.{.{.].P.P.P.{.{.{.].v q | :.w d A d N p.9 1./ v y.0.q.q.q.q.q.q.q.q.9.g.| r >.w S.Q.L.P.{.{.{.Y.P.H.Q.{.{.].P.P.P.",
"Q.Q.I./.].]./.I.I.Q.].].].Q.Y.I.{.H k 0.k.z r F d B 7.:  .Z f w.0.q.q.q.q.q.q.q.q.7.g.| N v.v B.{./.].Q.Q.E./.].]./.I.Q.Q.].].].",
"P.P.H.].{.{./.H.P.I.{.{.{.P.P.H.{.B 9 | @.w d A d N y.Q r v 0.q.0.q.q.q.q.q.q.q.q.7.g.| r :.w N.{.{.{.I.P.P.].{.{./.P.P.I.{.{.{.",
"P.P.H.].{.{./.H.P.I.{.{.{.P.P.H.{.H d 7.s.j t A d N p.0.q.q.q.q.q.q.q.q.q.q.q.q.q.7.g.| N k.z N.{.{.{.I.P.P.].{.{./.P.P.I.{.{.{.",
"Q././././././././././././././.Q.{.B t $.7.f y A d N p.0.q.q.q.q.q.q.q.q.q.q.q.q.q.7.g.| g 9.j B.{.Q././././.~./././././././././.",
"{.{.{.W.L.P.Q.{.{.].P.P.P.{.{.{.].z r @.1.p y A d N p.0.q.q.q.q.q.q.q.q.q.q.q.q.q.9.f.| g 2.a S.Q.H.P.{.{.{.I.H.L.Q.{.{.].P.P.P.",
"{.{.{.Q.P.P.Q.{.{.].P.P.P.{.{.{.{.b d 7.p.f d A d N p.0.q.q.q.q.q.q.q.q.q.q.q.q.q.7.g.| l k.j C./.K.P.{.{.{.I.P.P.Q.{.{.].P.P.P.",
"].].].Q.Q.Q./.].]./.Q.Q.Q././.].G.i & > p - r F d N y.8.0.0.0.0.0.0.0.0.0.0.0.0.0.7.f.o.< w a h.].I.Q./.].].Q.Q.Q.Q.).`./.Q.Q.Q.",
"P.P.H.].{.{./.J.P.I.{.{.{.P.H.].u.# g f O.B $ d d Z f.y.p.p.p.p.p.p.p.p.p.p.p.p.p.y.k./ :.z 9.P {.{.{.P.P.P.].{.{./.H.P.I.{.{.{.",
"P.P.P.].{.{./.P.P.I.{.{.{.I.H.].u.+ g j O.v = 9 ; 9 Z N N N N N N N N N N N N N N N Z q <.f ,.! {.{.{.I.P.P.].{.{./.P.P.I.{.{.{.",
"I.I.I./.{.{./.I.I.Q.{.{.].I.L./.N.= r j  .v o 9 8 l k k k k l l l l l k k k k k g m 9 # 9.s -.J {.].].I.I.I./.{.{./.I.I.Q.{.].{.",
"{.{.{.Q.P.P.Q.{.{.].P.P.P.P.P.H.{.l.< 1 w ;. .# 9 l g l l l r r t t r l l k l l l t a Y f 1 s j.Q.P.P.{.{.{.Q.P.P.Q.{.{.].P.P.P.",
"{.{.{.Q.P.P.Q.{.{.].P.P.P.P.P.P.].{./.P.D.P.{.N.o : - - & - ( ( ! ! ( - * : = ; + h N.Q.G./.Q.].P.P.P.{.{.{.Q.P.P./.{.{.].P.P.P.",
"{.{.{.Q.P.P.Q.{.{.].P.P.P.P.P.P.].{.{./.I.H.].B., T Q } T B {.{.]./.{.Z k T Q ..a l.{.H./.{.{.].P.P.P.{.{.{.Q.P.P./.{.{.].P.P.P.",
"I.I.I.P.P.P.P.I.I.I.P.P.P.].{.{.Q.I.I./.{.].{.j.; V :.1.7.H P.P././.{.B q U 5.q.L h.{.]./.P.I.Q.{.{.].I.I.I.(.{.{./.I.I.Q.{.{.{.",
"P.P.P.P.P.P.P.P.P.P.P.P.P.{.{.{.E.P.P./.{.{.{.l.; m @.,.:.Z I.P.{.{.{.b 9 T :.7.N h.{.{./.P.P.I.{.{.{.I.P.P.].{.{./.P.P.I.{.{.{.",
"P.P.P.P.P.P.P.P.P.P.P.P.P.{.{.{.I.P.P./.{.{.{.j.= M :.>.1.H P.P.{.{.{.B 9 U <.7.Z j.{.{./.P.P.I.{.{.{.I.P.P.].{.{./.P.P.I.{.{.{.",
"].].].I.P.P.P.P.P.I.].].).Q.Q.Q./.].]./.Y.I.{.N.- A ,.7.7.J ]./.W.I.].Z e Q 7.w.U j.{.I./.].]./.Q.Q.Q.`.].].Q.I.R./.].]./.W.Q.Q.",
"{.{.{.Q.P.P.P.P.P.I.{.{.{.P.P.P.].{.{./.P.H.{.N.& q Z U S b ].{.P.P.(.z - f J Q a H /.P.Q.{.{.].P.P.P.{.{.{.Y.P.P.Q.{.{.].P.P.P.",
"{.{.{.Q.P.P.P.P.P.I.{.{.{.P.P.P.].{.{./.H.I.S.v d V >.:.<.| *.{.P.I.;.r k Q <.:.1.j ! P.Q.{.{.].P.P.P.{.{.{.I.P.P.Q.{.{.].P.P.P.",
"/././.I.P.P.I./././././././././././././.Q.{.4.9 T T 7.f.f.A.7.;.{.Q.a V F @.a.f.v.A.z D.].Q././././././././././././././././././.",
"P.P.P.P.P.P.Q.{.{.].P.P.P.{.{.{.I.P.P./.{.{.h.= y 9 d @.O.-.U K {.{.z 8 r 8 E -.O.@.a P.{.H.P.I.{.{.{.P.P.P.].{.{.Q.H.P.I.{.{.{.",
"P.P.P.I.P.P.Q.{.{.].P.P.P.{.{.{.Y.P.P./.{.{.].3.K ! *.*.( ! K r.{.{.D.( ( ( ( ! ! ( ;.].].P.P.I.{.{.{.I.P.P.].{.{./.P.P.I.{.{.{.",
"P.P.I././.I./.].]./.Q.Q.Q.).].].Q.I.Q./.].]./.].{.{.{.{.{.{.{.]./.].{.{.{.{.{.{.{.{.{.]./.Q.Q.Q.`.].].Q.Q.Q./.].]./.Q.Q.Q.].].].",
"P.P.P.].{.{./.P.P.I.{.{.{.P.P.P.].{.{.~.H.P.Q.{.{./.H.H.P.{.{.{.P.P.H./.{.~./.{.{.I.H.P.Q.{.{.].P.P.P.{.{.{.I.L.H./.{.{.].P.P.P.",
"P.P.P.].{.{./.P.P.I.{.{.{.I.P.P.].{.{./.P.P.Q.{.{.].P.P.I.{.{.{.I.P.P.].{./.].{.{.Q.P.P.Q.{.{.].P.P.P.{.{.{.Q.P.P.Q.{.{.].P.P.P.",
"P.P.P.].{.{./.P.P.I.{.{.{.I.P.P.].{.{./.P.P.Q.{.{.].P.P.I.{.{.{.I.P.P.].{./.].{.{.Q.P.P.Q.{.{.].P.P.P.{.{.{.Q.P.P.Q.{.{.].P.P.P."
};
