/* XPM */
static const char *player2[] = {
/* columns rows colors chars-per-pixel */
"64 64 183 2 ",
"   c #040507",
".  c #05090D",
"X  c #030D19",
"o  c #0F171D",
"O  c #15181E",
"+  c #31090F",
"@  c #191E24",
"#  c #2F1F23",
"$  c #1D2126",
"%  c #1E2429",
"&  c #12273C",
"*  c #22252B",
"=  c #25292E",
"-  c #252C33",
";  c #2A2E34",
":  c #2B3037",
">  c #2D333B",
",  c #303336",
"<  c #31353C",
"1  c #37393D",
"2  c #3A3B3D",
"3  c #55131C",
"4  c #71000E",
"5  c #5C343C",
"6  c #112A42",
"7  c #043A5C",
"8  c #2A3543",
"9  c #2F3842",
"0  c #333B44",
"q  c #3B3E43",
"w  c #353F48",
"e  c #3E4145",
"r  c #37404A",
"t  c #3A424C",
"y  c #3D4651",
"u  c #3F4851",
"i  c #184F6F",
"p  c #434345",
"a  c #41464B",
"s  c #45494D",
"d  c #4B4B4D",
"f  c #434B55",
"g  c #4A4E53",
"h  c #454E59",
"j  c #514F54",
"k  c #4D5155",
"l  c #46515B",
"z  c #4A535C",
"x  c #515355",
"c  c #52565A",
"v  c #5E575C",
"b  c #53595D",
"n  c #5B5C5E",
"m  c #61555A",
"M  c #4C5662",
"N  c #4E5964",
"B  c #555C62",
"V  c #5B5E62",
"C  c #545E69",
"Z  c #675F61",
"A  c #5C6166",
"S  c #56626D",
"D  c #5C646C",
"F  c #5F686E",
"G  c #5B6570",
"H  c #5C6873",
"J  c #616365",
"K  c #696366",
"L  c #616669",
"P  c #6A676C",
"I  c #63696E",
"U  c #6B6B6C",
"Y  c #7A6E6F",
"T  c #646C73",
"R  c #6A6E72",
"E  c #626E79",
"W  c #736D70",
"Q  c #6A7174",
"!  c #677179",
"~  c #6C757C",
"^  c #737374",
"/  c #7C7171",
"(  c #73777B",
")  c #72797E",
"_  c #7B7B7B",
"`  c #8E0011",
"'  c #AA091E",
"]  c #A82A3E",
"[  c #96404F",
"{  c #EE4B60",
"}  c #FD4A63",
"|  c #3F7C9F",
" . c #6D7882",
".. c #747D84",
"X. c #7B7F83",
"o. c #737F89",
"O. c #3380AE",
"+. c #778087",
"@. c #7B8286",
"#. c #778288",
"$. c #7C858B",
"%. c #738889",
"&. c #7F8890",
"*. c #4F97C1",
"=. c #54AADA",
"-. c #838282",
";. c #80878E",
":. c #828A8F",
">. c #8A8A8B",
",. c #838C93",
"<. c #8B8F93",
"1. c #869096",
"2. c #899196",
"3. c #8C949B",
"4. c #8E999F",
"5. c #959596",
"6. c #9A9798",
"7. c #91999E",
"8. c #8A9FA2",
"9. c #959EA3",
"0. c #989FA5",
"q. c #96A0A6",
"w. c #99A1A6",
"e. c #9BA4A9",
"r. c #9DA9AE",
"t. c #A4A4A4",
"y. c #A8A8A7",
"u. c #A0A6AC",
"i. c #A1AAAF",
"p. c #AAAAAA",
"a. c #B5A7A8",
"s. c #A4ACB1",
"d. c #A7B0B5",
"f. c #A8B1B6",
"g. c #A7B3B9",
"h. c #ACB6BB",
"j. c #AEB8BE",
"k. c #B5B5B4",
"l. c #B5B7B9",
"z. c #B2BABF",
"x. c #BBBBBB",
"c. c #8BBCD9",
"v. c #B1BBC1",
"b. c #C0BFC0",
"n. c #B5C0C6",
"m. c #B9C5CB",
"M. c #BDCBD2",
"N. c #AED7F0",
"B. c #B6DEF5",
"V. c #C4C3C3",
"C. c #CCCBCB",
"Z. c #D0CFCF",
"A. c #D0D0CF",
"S. c #C1CDD2",
"D. c #CAD5DC",
"F. c #D2D1D1",
"G. c #DCDBDC",
"H. c #D6E4EA",
"J. c #E5E5E5",
"K. c #E7E8E7",
"L. c #E8E8E7",
"P. c #E8E7E8",
"I. c #E7E8E8",
"U. c #EAEBEA",
"Y. c #F7E7E6",
"T. c #EFF0EF",
"R. c #F0F0EF",
"E. c #EFEFF0",
"W. c #F0EFF0",
"Q. c #EFF0F0",
"!. c #F2F1F1",
"~. c #F3F3F3",
"^. c #F4F4F4",
"/. c #F6F7F6",
"(. c #F7F8F7",
"). c #F8F8F7",
"_. c #F7F7F8",
"`. c #F8F7F8",
"'. c #F7F8F8",
"]. c #F9F9F9",
"[. c #FBFBFB",
"{. c gray99",
"}. c white",
/* pixels */
"U.U.U.].}.}./.U.U.U.}.}.}.U.U.U.].}.}./.U.U.!.}.}.].U.U.U.}.}.}.U.U.U.].}./.].}.}.!.U.U.!.}.}.].U.U.U.}.}.}.!.U.U./.}.}.].U.U.U.",
"U.U.U.].}.}./.U.U.U.}.}.}.U.U.U.].}.}./.U.U.!.}.}.].U.U.U.}.}.}.U.U.U.].}./.].}.}.!.U.U.!.}.}.].U.U.U.}.}.}.!.U.U./.}.}.].U.U.U.",
"U.U.U.].}.}./.U.U.U.}.}.}.U.U.U.].}.}.!.K.U.!.}.}./.K.K.U.}.}.}.U.U.K./.}.!./.}.}.U.K.U.!.}.}.].U.U.U.}.}.}.U.I.K./.}.}.].K.I.U.",
"U.U.U././.U./.].]./.!.!.!.).].].!.Q.!./.].]./.].}.}.}.}.}.}.}.]./.].}.}.}.}.}.}.}.}.}.]./.!.!.!.].].].!.!.!./.].]./.!.!.!.'.].].",
"U.U.U.U.U.U.!.}.}.].U.U.U.}.}.}.T.U.U./.}.}.].5.U ^ -.-._ ^ U y.}.}.G._ _ _ ( ^ ^ _ >.].].U.U.U.}.}.}.U.U.U.].}.}./.K.U.U.}.}.}.",
"U.U.U.U.U.U.!.}.}.].U.U.U.}.}.}.U.U.U./.}.}.k.- u 0 f @.@.:.T U }.}.x 9 t 9 Q :.@.@.s U.}.K.U.U.}.}.}.U.U.U.].}.}./.K.P.U.}.}.}.",
"/././.U.U.U.U./././.!.!././././././././.!.}.6.9 E E 9.h.f.D.9.>.}.!.s C G $.d.f.n.D.c G.].!./././.!././././././././././././././.",
"}.}.}.!.U.U.U.U.U.U.}.}.}.U.U.U.].}.}./.K.U.F.c f C <.,.2...-.}.U.U.>.t l ~ 2.,.3.k ^ U.!.}.}.].U.U.U.}.}.}.U.U.U.!.}.}.].U.U.U.",
"}.}.}.!.U.U.U.U.U.U.}.}.}.U.U.U.].}.}./.U.K.].V.* w A T D n ].}.U.L.).x - g L ~ a J /.U.!.}.}.].U.U.U.}.}.}.T.U.U.!.}.}.].U.U.U.",
"].].].U.U.U.U.U.U.U.].].].!.!.!./.].]./.T.U.}.V.; S 1.9.9.L ]./.!.U.].J r ~ 9.r.T x.}.U./.].]./.!.!.!.`.].].!.U.E./.].]./.Q.!.!.",
"U.U.U.U.U.U.U.U.U.U.U.U.U.}.}.}.U.P.U./.}.}.}.x.- N ,.<.3.J U.U.}.}.}.V 0 T 2.9.A l.}.}./.U.U.U.}.}.}.U.U.U.].}.}./.U.U.U.}.}.}.",
"U.U.U.U.U.U.U.U.U.U.U.U.U.}.}.}.W.U.U./.}.}.}.x.: M $.1.,.A U.U.}.}.}.n 0 E ,.9.B k.}.}./.U.U.U.}.}.}.U.U.U.].}.}./.U.U.U.}.}.}.",
"U.U.U.U.U.U.U.U.U.U.U.U.U.].}.}.!.U.U./.}.].}.x.: C ,.4.9.J U.U././.}.V w T 7.e.I k.}.]./.U.U.!.}.}.].U.U.U.(.}.}./.U.U.!.].}.}.",
"}.}.}.!.U.U.!.}.}.].U.U.U.U.U.U.].}.}./.U.K.].C.< E ~  .E V }.}.]./.}.A l E ~ o.s x.}.K./.}.}.].U.U.U.}.}.}.!.U.U./.}.}.].U.U.U.",
"}.}.}.!.U.U.!.}.}.].U.U.U.U.U.U.].}./.U.G.U.}.V.O > ; ; * ; _ _ ^ ^ _ ; = > - : @ j V.!.J././.].U.U.U.}.}.}.!.U.U./.}.}.].U.U.U.",
"}.}.}.!.U.U.!.}.}.].U.U.U.U.U.K.}.x.1 2 e >.X.$ 0 z h l z l t t y y t l l l l l z y s R g 2 d x.!.U.U.}.}.}.!.U.U./.}.}.].U.U.U.",
"U.U.U./.}.}./.U.U.!.}.}.].U.K.!.V.- t k X.b o 0 9 z l l l l z z z z z l l l l l h M 0 $ q.d :.L }.].].U.U.U./.}.}./.U.U.!.}.].}.",
"U.U.U.].}.}./.U.U.U.}.}.}.U.K.].p.@ h c @.b - 0 : 0 A B B B B B B B B B B B B B B B A w 2.g 1.^ }.}.}.U.U.U.].}.}./.U.U.U.}.}.}.",
"U.U.U.].}.}./.L.U.U.}.}.}.U.K.'.p.$ h g @.V % f f A h.i.s.s.s.s.s.s.s.s.s.s.s.s.s.i.z.) ,.c q.U }.}.}.U.U.U./.}.}./.K.U.U.}.}.}.",
"].].].!.!.!./.].]./.!.!.!././.].J.p * , a ; t G f B i.0.w.w.w.w.w.w.w.w.w.w.w.w.w.9.h.+.1 e s k.].U.!./.].].!.U.!./.].]./.!.E.!.",
"}.}.}.!.U.U.!.}.}.].U.U.U.}.}.}.}.n f 9.s.g f S f B s.w.e.e.e.e.e.e.e.e.e.e.e.e.e.0.j...z z.k A./.P.U.}.}.}.U.U.U./.}.}.].U.U.U.",
"}.}.}.Q.I.U.!.}.}.].U.U.U.}.}.}.].x t $.3.a u S f B s.w.e.e.e.e.e.e.e.e.e.e.e.e.e.q.h...h 4.s F.!.K.U.}.}.}.U.K.I.!.}.}.].U.U.U.",
"/./././.!././././././././././.!.}.V y &.9.g u S f B s.w.e.e.e.e.e.e.e.e.e.e.e.e.e.0.j...h q.k C.}.!./././././././.!.!./././././.",
"U.U.K.].}.}./.K.U.U.}.}.}.U.U.K.}.J f 9.f.k y S f B s.w.e.e.e.e.e.e.e.e.e.e.e.e.e.0.j...B z.x V.}.}.}.U.U.U.].}.}./.U.U.U.}.}.}.",
"U.U.K./.}.}./.K.U.U.}.}.}.U.U.K.}.V 0 ..$.e f S f B i.~ t b w.e.w.e.e.e.e.e.e.e.e.0.j...t ,.e V.}.}.}.U.U.U.].}.}./.U.U.U.}.}.}.",
"!.!.U./.].]./.U.U.!.].].].!.T.U.}.J l w.z.c t G f V 9.> X.A f r.w.e.e.e.e.e.e.e.e.0.j...B n.b C.}./.].!.!.W./.].]./.U.!.!.].].].",
"}.}.}.U.U.U.!.}.}.].U.U.U.}.}.}.].b w ..&.e f S f B s.0 3.) b i.w.e.e.e.e.e.e.e.e.q.j...t <.e F.!.I.U.}.}.}.T.U.U.!.}.}.].U.U.U.",
"}.}.}.U.U.U.!.}.}.].U.U.U.}.}.}.].b f 3.e.k u S h B d.$.s D e.e.e.e.e.e.e.e.e.e.e.0.j...l s.k C.!.U.U.}.}.}.Q.U.U./.}.}.].U.U.U.",
"}.}.}.!.U.U.!.}.}.].U.U.U.].}.].}.V 0 ~ <.e h G h B s.s.j.h.u.e.e.e.e.e.e.e.e.e.e.0.j...f ,.a F./.U.U.].}.}.!.U.U./.}.}.].U.U.U.",
"U.U.U.].}.}./.U.U.U.}.}.}.U.U.I.}.J z 9.w.s - S f B s.E p s $.e.e.e.e.e.e.e.e.e.e.0.j...h v.c V.}.}.}.U.U.U.].}.}./.U.U.U.}.}.}.",
"U.U.U.].}.}./.U.U.U.}.}.}.U.U.K.}.V - c w ; O f l A ,.+ ' ` # q.e.e.e.e.e.e.e.e.e.0.j.+.o T b C.}.}.}.U.U.U.].}.}./.U.U.U.}.}.}.",
"U.U.U.].}.}./.U.U.U.}.}.}.U.U.!.p.= > * S w > f l A %.4 } { 3 8.u.e.e.e.e.e.e.e.e.w.h.$.r % * 5.!.}.}.U.U.U.].}.}./.U.U.U.}.}.}.",
"].].}.!.U.U.!.}.}.].U.U.U.].}.].e 9 V t ..V a f l B r.5 ] [ m r.e.e.e.e.e.e.e.e.e.w.j...T b l * p.].U.].}.}.!.U.U./.}.}.].U.U.U.",
"}.}.}.U.U.U.!.}.}.].U.U.U.}.}.}.x t V a ,.~ b f l B s.4.d v e.0.0.0.0.0.0.0.0.0.0.9.f...@.A A c p./.U.}.}.}.U.U.U./.}.}.].U.U.U.",
"}.}.}.U.K.U.!.}.}.].U.U.U.}.}.}.a y 7.g r.) A h z B v.v.m.m.z.v.v.v.v.v.v.v.v.v.v.j.S.$.3.T ~ k y._.K.}.}.}.U.U.U.!.}.}.].L.U.U.",
"!.!.!./.].)./.!.!.!.].].].!.T./.5.k ,.T m.~ b r t 0 D I D D D F I I I I F D D D D T D a M.Q e c U.]./.!.!.!./.].]./.!.!.!./.].].",
"U.U.I.].}.}./.U.U.U.}.}.}.U.U.U./.k.2 p a = = w h l r r t t t t t t t t t t t t t t - b 2.a _ J.}.}.}.U.U.U.].}.}./.U.U.U.}.}.}.",
"U.U.U.].}.}./.U.U.U.}.}.}.U.U.U.K.!./.>.. < l f : 0 B b b b b b b b b c c b b b b B , ^ U x.}.U.}.}.}.U.U.U.].}.}.!.L.U.U.}.}.}.",
"U.U.U.!././.R.U.U.U./././.U.U.U.!.U.}.x.1 < * t y V h.s.s.s.s.s.s.s.s.d.s.s.s.s.r.m.Q J.}./.!.!././.!./././././././././././././.",
"U.U.U.U.U.U.U.U.U.U.U.U.U.U.U.U.].}.}.!.}.^ 0 H h B s.w.e.w.e.7.9.e.$. .1.r.7.w.9.j.I C./.}.}.].U.U.U.].}.}.Q.U.U.!.}.}.].U.U.U.",
"U.U.U.U.U.U.U.U.U.U.U.U.U.U.U.I.].}.}.!./.^ t S f B s.w.e.e.s.:.D s.r.q.f.3.A i.e.j.T Z./.}.}.].U.U.U.}.}.}.T.U.U.!.}.}.].U.U.U.",
"W.U.!.U.U.U.U.!.!.U.U.U.U.U.W.T./.].].!.}.( r G f B s.w.i.9.4.f.2.c b B k I w.4.3.v.L F.].].]./.T.T.!.].].].!.U.E./.].]./.T.T.!.",
"}.}.}.!.U.U.!.}.}.].U.U.U.}.}.}.U.U.U.!.}._ w G f B s.0.! t y z ,.s.w.e.w.e...t t N 0 U.].P.U.U.}.}.}.U.U.U.].}.}./.U.U.U.}.}.}.",
"}.}.}.!.U.U.!.}.}.].U.U.U.}.}.}.W.U.U.!.}._ w G f B i.C f W Y / g $.s.w.e.~ r P / Y p J.}.U.U.U.}.}.}.U.U.U.].}.}./.U.U.U.}.}.}.",
"}.}.}.!.U.U./.}.}.].U.U.U.].}.}.!.U.U.!.}._ w G f V ~ f a.G.N.B.z.P 9.i.$.a 5.W.B.B.j.-.U.U.U.U.}.}.].U.U.U.(.}.}./.U.U.!.}.}.}.",
"U.U.U.].}.}./.U.U.U.}.}.}.U.U.U.].}.}.!.].^ r G f D B ^ Y.*.| 7 =.5.~ h.! j Y.c.O.i =.-.k.}.}.].U.U.U.}.}.}.!.U.U./.}.}.].U.U.U.",
"U.U.U./.}.}./.U.U.U.}.}.}.U.U.U.].}.}.!.).^ r G f A S q K & . . 6 a @.f.~ , Z 8 X   & q V.}.}.].U.U.U.}.}.}.!.U.U./.}.}.].U.U.U.",
"U.U.U.`.}.}./.U.U.U.}.}.}.U.U.U.].}.}.!.].^ r S f A ) - z R T T ^ B ..s.;.; u D R I ( g b.}.}.].U.U.U.}.}.}.!.U.U./.}.}.].U.U.U.",
"].].}.!.U.U.!.}.}.].U.U.U.].}.}.!.U.U.!.}._ w G f A 7.0 $.j.s.n.H.I @.s.w.t T j.s.m.M.<.!.U.U.W.}.}.].U.U.U./.}.}./.U.U.!.}.].}.",
"}.}.}.!.U.U.!.}.}.].U.U.U.}.}.}.U.U.U.!.}._ w G f B d.@.< ) ,.4.) ..i.w.r.3.f ) 2.,.k x.}.K.U.U.}.}.}.U.U.U.].}.}./.U.U.U.}.}.}.",
"}.}.}.!.U.U.!.}.}.].U.U.U.}.}.}.U.U.U.!.}._ w G f B s.i.) c A b ..s.e.e.e.s.<.b A A 2 U.].K.U.U.}.}.}.U.U.U.].}.}./.K.U.U.}.}.}.",
"!.!.R./.].]./.!.!.!.].].].!.!.!./.].].!.}.^ r G f A 4.C 4.d.i.s.i.e.e.e.e.e.r.s.u.m.Q F.].`.]./.!.!.!./.].].!.!.!.!.]././.!.!.!.",
"U.U.I./.}.}./.U.U.U.}.}.}.U.U.U.].}.}.!.'.^ r G f A 3.l ..e.w.e.e.e.e.e.e.e.e.e.0.j.U C./.}.}.].U.U.U.].}.}.W.U.U.!.}.}.].U.U.U.",
"U.L.K./.}.}./.K.U.U.}.}.}.U.U.U.].}.}.!./.^ r G l B s.1.0.w.w.w.9.0.0.0.0.0.0.w.9.g.R Z./.}.}.].I.I.U.}.}.}.T.U.U.!.}.}.].U.U.U.",
"!././././.!././.!.!./././.!.!././././.!.}.( r H t a #.........#.,.,.,.,.,.,.,.&.1.3.e G.].!././.!.!././././././././././././././.",
"}.}.}.!.U.U.!.}.}.].U.U.U.}.}.}.U.U.U.!.}._ r z t @.e.0.w.w.0.r.j.h.h.h.h.h.j.v.n...>.}./.U.U.U.}.}.}.U.U.U.].}.}./.P.U.U.}.}.}.",
"}.}.}.!.U.U.!.}.}.].U.U.U.}.}.}.U.U.U.!.}._ > ~ f.h.s.f.f.f.f.s.s.s.s.s.s.s.r.:.J 5.}.}./.U.U.U.}.}.}.U.U.U.].}.}./.U.U.U.}.}.}.",
"].].].!.T.!./.].]./.!.!.!.].].].!.!.T.!.}.6.* L A A A A A A A A A A A A A L J U G.}./.]./.U.!.!.].].].!.!.!./.].]./.U.!.!.].].].",
"U.U.U.'.}.}./.I.U.U.}.}.}.U.U.U.].}.}./.U.U.x.k.k.k.p.y.p.k.x.l.p.y.p.y.t.t.b.}.}.!.U.U.!.}.}.].U.U.U.}.}.}.!.U.U./.}.}.].U.U.U.",
"U.U.U.].}.}./.U.U.U.}.}.}.U.U.U.].}.}./.U.U./.}.}.}.(.(.].}.}.}./././.!.U.E.].}.}.!.U.U.!.}.}.].U.U.U.}.}.}.!.U.U./.}.}.].U.U.U.",
"U.U.U./.}.}./.U.U.!.}.}.].U.U.U.'.}.}./.U.U.U.].]./.U.U.U.].].].U.U.U.K.J.J.!.].}.!.U.U.!.}.}.].U.U.U.].}.}.!.U.U./.].}.].U.U.U.",
"}.}.}.!.U.U.!.}.}.].U.U.U.}.}.}.!.U.U./.}.}.].U.U.!.}.}.].U.U.U.}.}.}.U.U.U.U.U.U./.}.}./.U.U.U.}.}.}.U.U.U.].}.}./.U.U.U.}.}.}.",
"}.}.}.!.U.U.!.}.}.].U.U.U.}.}.}.!.U.U./.}.}./.U.U.!.}.}.}.U.U.U.}.}.}.U.U.U.U.U.U./.}.}./.U.U.U.}.}.}.U.U.U.].}.}./.U.U.U.}.}.}.",
"}.}.}.!.U.U.!.}.}.].U.U.U.}.}.}.U.U.U./.}.}./.I.U.Q.}.}.].U.U.U.}.}.}.U.U.U.U.U.U./.}.}./.U.U.U.}.}.}.U.U.U.].}.}./.U.U.U.}.}.}."
};
