/* XPM */
static const char *player1[] = {
/* columns rows colors chars-per-pixel */
"64 64 181 2 ",
"   c #040507",
".  c #05090D",
"X  c #030D19",
"o  c #0F171D",
"O  c #15181E",
"+  c #31090F",
"@  c #191E24",
"#  c #2F1F23",
"$  c #1D2126",
"%  c #1E2429",
"&  c #12273C",
"*  c #22252B",
"=  c #25292E",
"-  c #252C33",
";  c #2A2E34",
":  c #2B3037",
">  c #2D333B",
",  c #303336",
"<  c #31353C",
"1  c #37393D",
"2  c #3A3B3D",
"3  c #55131C",
"4  c #71000E",
"5  c #5C343C",
"6  c #112A42",
"7  c #043A5C",
"8  c #2A3543",
"9  c #2F3842",
"0  c #333B44",
"q  c #3B3E43",
"w  c #353F48",
"e  c #3E4145",
"r  c #37404A",
"t  c #3A424C",
"y  c #3D4651",
"u  c #3F4851",
"i  c #184F6F",
"p  c #434345",
"a  c #41464B",
"s  c #45494D",
"d  c #4B4B4D",
"f  c #434B55",
"g  c #4A4E53",
"h  c #454E59",
"j  c #514F54",
"k  c #4D5155",
"l  c #46515B",
"z  c #4A535C",
"x  c #515355",
"c  c #52565A",
"v  c #5E575C",
"b  c #53595D",
"n  c #5B5C5E",
"m  c #61555A",
"M  c #4C5662",
"N  c #4E5964",
"B  c #555C62",
"V  c #5B5E62",
"C  c #545E69",
"Z  c #675F61",
"A  c #5C6166",
"S  c #56626D",
"D  c #5C646C",
"F  c #5F686E",
"G  c #5B6570",
"H  c #5C6873",
"J  c #616365",
"K  c #616669",
"L  c #6A666A",
"P  c #63696E",
"I  c #6B6B6C",
"U  c #7A6E6F",
"Y  c #646C73",
"T  c #6B6E72",
"R  c #626E79",
"E  c #736D70",
"W  c #6A7174",
"Q  c #677179",
"!  c #6C757C",
"~  c #737374",
"^  c #7C7171",
"/  c #73777B",
"(  c #72797E",
")  c #7B7B7B",
"_  c #8E0011",
"`  c #AA091E",
"'  c #A82A3E",
"]  c #96404F",
"[  c #EE4B60",
"{  c #FD4A63",
"}  c #3F7C9F",
"|  c #6D7882",
" . c #747D84",
".. c #7B7F83",
"X. c #737F89",
"o. c #3380AE",
"O. c #778087",
"+. c #7B8286",
"@. c #778288",
"#. c #7C858B",
"$. c #738889",
"%. c #7F8890",
"&. c #4F97C1",
"*. c #54AADA",
"=. c #838282",
"-. c #80878E",
";. c #828A8F",
":. c #8A8A8B",
">. c #838C93",
",. c #8B8F93",
"<. c #869096",
"1. c #899196",
"2. c #8C949B",
"3. c #8E999F",
"4. c #959596",
"5. c #9A9798",
"6. c #91999E",
"7. c #8A9FA2",
"8. c #959EA3",
"9. c #989FA5",
"0. c #96A0A6",
"q. c #99A1A6",
"w. c #9BA4A9",
"e. c #9DA9AE",
"r. c #A4A4A4",
"t. c #A8A8A7",
"y. c #A0A6AC",
"u. c #A1AAAF",
"i. c #B5A7A8",
"p. c #A4ACB1",
"a. c #A7B0B5",
"s. c #A8B1B6",
"d. c #A7B3B9",
"f. c #ACB6BB",
"g. c #AEB8BE",
"h. c #B5B5B4",
"j. c #B5B7B9",
"k. c #B2BABF",
"l. c #BBBBBB",
"z. c #8BBCD9",
"x. c #B1BBC1",
"c. c #C0BFC0",
"v. c #B5C0C6",
"b. c #B9C5CB",
"n. c #BDCBD2",
"m. c #AED7F0",
"M. c #B6DEF5",
"N. c #C4C3C3",
"B. c #CCCBCB",
"V. c #D0CFCF",
"C. c #D0D0CF",
"Z. c #C1CDD2",
"A. c #CAD5DC",
"S. c #D2D1D1",
"D. c #DCDBDC",
"F. c #D6E4EA",
"G. c #E5E5E5",
"H. c #E7E8E7",
"J. c #E8E8E7",
"K. c #E8E7E8",
"L. c #E7E8E8",
"P. c #EAEBEA",
"I. c #F7E7E6",
"U. c #EFF0EF",
"Y. c #F0F0EF",
"T. c #EFEFF0",
"R. c #F0EFF0",
"E. c #EFF0F0",
"W. c #F0F0F0",
"Q. c #F3F3F3",
"!. c #F4F4F4",
"~. c #F6F6F6",
"^. c #F7F8F7",
"/. c #F8F8F7",
"(. c #F7F7F8",
"). c #F8F7F8",
"_. c #F7F8F8",
"`. c #F8F8F8",
"'. c #FBFBFB",
"]. c gray99",
"[. c #FEFEFE",
/* pixels */
"[.[.[.P.P.P.`.[.[.~.P.P.W.[.[.`.P.P.P.[.[.[.R.P.P.P.P.P.W.[.[.`.P.P.P.[.[.[.W.P.P.~.[.[.`.P.P.P.[.[.[.P.P.P.`.[.[.~.P.P.P.P.P.P.",
"[.[.[.P.P.P.`.[.[.~.P.P.W.[.[.`.P.P.P.[.[.[.P.P.P.P.P.P.W.[.[.`.P.P.P.[.[.[.W.P.P.~.[.[.`.P.P.P.[.[.[.P.P.P.`.[.[.~.P.P.P.P.P.P.",
"[.[.[.P.P.P.`.[.[.W.H.L.Y.[.[.[.P.P.P.[.[.[.W.P.P.P.P.L.W.[.[.[.P.P.P.[.[.[.P.H.H.~.[.[.`.P.P.P.[.[.[.P.P.P.`.[.[.~.P.P.P.P.P.P.",
"W.W.W.~.`.`.W.W.W.~.`.`.~.W.W.W.`.`.`.W.W.W.P.P.P.W.`.`.~.P.W.W.`.`.`.W.W.W.~.`./.~.E.W.W.`.`.~.W.W.W.P.P.P.P.W.W.P.P.P.~.`.`.`.",
"P.P.P.[.[.[.U.P.P.~.[.[.`.P.P.P.[.[.[.P.P.P.P.P.P.~.[.[.`.H.P.P.[.[.[.P.P.P.`.[.[.~.L.P.W.[.[.[.P.P.P.P.P.P.P.P.P.P.P.P.~.[.[.[.",
"P.P.P.[.[.[.W.P.P.~.[.[.`.P.P.P.[.[.[.P.P.P.P.P.P.~.[.[.`.P.P.P.[.[.[.P.P.P.`.[.[.~.P.P.W.[.[.[.P.P.P.P.P.P.P.P.P.P.P.P.P.[.[.[.",
"W.W.W.~.~.~.~.W.W.~.~.~.~.W.W.W.~.~.~.W.W.W.P.P.P.Y.~.~.~.W.W.W.~.~.~.W.~.W.~.~.~.~.W.W.~.~.~.~.W.W.W.P.P.P.P.P.P.P.W.W.~.~.~.~.",
"[.[.[.P.P.P.`.[.[.~.H.P.W.[.[.[.P.P.P.[.[.[.W.P.P.P.P.P.W.[.[.[.P.P.P.[.[.[.P.H.H.~.[.[.`.J.P.P.[.[.[.P.P.P.P.P.P.~.[.[.`.P.P.P.",
"[.[.[.P.P.P.`.[.[.~.P.P.W.[.[.[.P.P.P.[.[.[.W.P.P.P.P.P.W.[.[.[.P.P.P.[.[.[.P.P.P.~.[.[.`.P.P.P.[.[.[.P.P.P.P.P.P.~.[.[.`.P.P.P.",
"`.`.`.W.P.P.~.`.`.~.P.P.W.`.`.`.P.P.U.`.`.`.P.P.P.P.P.P.W.`.`.`.P.P.P.`.`.`.W.P.P.~.`.`.~.P.P.W.`.`.`.P.P.P.P.P.P.~.`.`.~.P.P.P.",
"P.P.P.[.[.[.W.P.P.~.[.[.`.P.P.P.[.[.[.P.P.P.P.P.P.~.[.[.`.P.P.P.[.[.[.P.P.P.`.[.[.~.P.P.W.[.[.[.P.P.P.P.P.P.`.[.[.~.P.P.W.[.[.[.",
"P.P.P.[.[.[.W.P.P.~.[.[.`.P.P.P.[.[.[.P.P.P.P.P.P.~.[.[.`.P.P.P.[.[.[.P.P.P.`.[.[.~.P.P.W.[.[.[.P.P.P.P.P.P.`.[.[.~.P.P.W.[.[.[.",
"P.P.P.`.[.[.W.P.P.~.[.[.`.P.P.P.[.[.[.P.P.P.P.P.P.~.[.[.`.P.P.P.[.[.[.P.P.P.`.[.[.~.P.P.W.[.[.`.P.P.P.P.P.P.`.[.[.~.P.P.W.[.[.[.",
"[.[.[.P.P.P.`.[.[.W.P.P.W.[.[.`.P.P.P.`.[.[.P.P.P.P.P.P.W.[.[.`.P.P.P.`.[.[.W.P.P.~.[.[.~.P.P.P.P.P.P.`.[.[.W.P.P.~.[.[./.P.P.P.",
"[.[.[.P.P.P.`.[.[.W.P.P.W.[.[.[.P.P.P.[.[.[.R.P.P.P.P.P.U.[.[.[.P.P.P.[.[.[.U.P.P.~.[.[.~.H.H.L.P.P.P.[.[.[.W.P.P.~.[.[.`.P.P.P.",
"[.[.[.P.P.P.`.[.[.~.P.P.W.[.[.[.P.P.P.[.[.[.U.L.P.P.P.P.~.[.[.`.W.H.L.`.[.[.P.H.H.W.[.[.`.`.`.~.H.P.P.[.[.[.W.P.P.~.[.[.`.P.P.P.",
"P.W.W._.`.`.W.P.P.~.`.`.~.P.P.W.`.`.`.W.R.P.~.`.`.W.H.~.4.a x e t.[.[.[.`.`.[.[.[.[.`.[.G.t.t.N.[.`.`.W.R.P.~.`.`.~.P.U.W.`.`.`.",
"P.P.P.[.[.[.W.P.P.~.[.[.`.P.P.P.[.[.[.P.P.P.`.[.[.P.W.h.k y t 9 = V J B b b J V K V x n p $ @ - l.[.[.P.P.P.`.[.[.~.P.P.E.[.[.[.",
"P.P.P.[.[.[.U.P.P.~.[.[.`.P.P.P.[.[.[.P.P.P.`.[.[.[.~.2 >.6.B V > ; z 0 f w l 0 f y t f * h h t 1 ~.[.P.P.P.`.[.[.~.P.P.W.[.[.[.",
"~.W.~.~.~.~.W.W.W.W.W.W.W.W.W.W.W.W.W.W.W.W.W.W.W.l.:.p Y g a t * c 8.! 2. .q. .8.%.#.8., g c k 2 P.~.~.~.~.~.~.W.~.~.~.~.W.~.~.",
"[.[.[.P.P.P.[.[.[.[.~._.[.[.[.[.`./.`.[.[.[.[.~.[.1 . a b.e.>. .S w q.,.w.%.k.#.s.8.2.p.a +.+...e D.P.[.[.[.U.P.H.W.[.[.`.H.P.P.",
"[.[.[.P.P.P.5.) ) / ~ ~ ~ ) ) ) ~ ~ ~ ) ) ) / ~ ~ < < = ! ( ! V w ; s e k t c e k g a g ; B b c :.P.H.`.[.[.P.H.P.[.[.[.`.P.P.P.",
"~.^.`.P.~.l.* > r r r r r w w w r r r w w w r t 0 * z = b A b a > O - h u f t f y u u f t % - o ..[.`.[.[.[.[.[.S.5.h.`.~.W.W.W.",
"P.P.P.`.[.h.K ! z H G G G G G G D G G G G G G D H t f w r h f f f f D G D D G D D D D S G f 0 0 $ N.B.j.j.j.N.N.b 0 - 4.`.[.[.[.",
"P.P.P.`.[.h.A f.t t l f f f f f f f f f f f f f h y : h t z l l l l f h h f f f f f f f f f : 9 0 O < : : - ; * f R u I [.[.[.[.",
"E.W.W.~.[.h.A f.#.a B A A B B A A A D V B B B B B V 0 l 0 B B B A A B B B B V B B B B B B A 0 z z > R C N N S w C R 0 ~ [.~.`.`.",
"[.[.[.P.^.t.A p.w.@.p.2.2.p.a.6.( S B ! u.p.p.p.p.f.B r D x.p.e.$.>.p.p.a.p.8.u.p.p.p.p.u.f.A l h ; ! >.@.>.<.A ,.8.f =.[.H.P.P.",
"[.[.[.P.^.t.A s.9. .<.l C u.+.0 ; q ~ f C 9.q.q.q.p.b r P x.3.5 4 + R p.#.0 > ! q.q.q.q.9.u.B l z ; | 2.<.,.8.Y >.f.#.=.[.H.P.P.",
"`.[.`.P.`.t.A s.q. .9. .2.( < #.z L I.i.f Q u.q.q.p.b t D b.d ' { ` p g.s 2...t w.q.q.w.q.p.B l z * R 8.>.2.8.D 1.f.+.) [.P.P.P.",
"P.P.P.`.[.h.A s.q. .q.w.a.c ( g.T & &.D.E t 8.w.q.p.b t D b.v ] [ _ s f.D ( A b w.q.q.q.q.p.B l z ; V J A J P n  .A.;.~ [.[.[.[.",
"P.P.P.`.[.j.A s.9. .q.q.u.A >.p.Y . } m.U y 2.p.q.p.b t D k.w.m 3 # #.y.w.b f q.w.q.w.q.q.p.B z t ) [.P.P.P.`.`.=.8.Y I [.[.[.[.",
"P.P.P.`.[.j.A p.e.@.q.q.p.b 2.v.Y . 7 M.^ z s.;.6.p.b t F x.9.e.7.0.w.q.w.u.e.w.q.w.w.q.q.p.B z t ) [.P.P.P.~.[.[.:.I t.`.[.[.[.",
"[.[.[.P.~.t.A p.g.>.8.w.u. .( F.~ 6 *.k.g >.1.D 8.p.b t P x.9.w.y.w.q.q.w.q.w.q.q.w.w.w.q.p.B z y ~ `.~.[.[.W.P.P.[.[.[.~.P.P.P.",
"[.[.[.P.~.t.A p.f.>.9.w.q.p. .P B a 4.L @.p.c p.w.p.b t P x.9.w.q.q.w.w.w.w.w.w.w.q.w.w.q.p.B z y ~ ~.~.[.[.P.P.P.W.[.[.`.P.P.P.",
"[.[.[.P.~.t.A p.f.>.9.w.w.q.u.#. .+.! 8.p.q.b e.#.p.b t P x.9.w.w.w.q.w.w.w.q.q.w.w.q.q.q.p.B z t ) [.[.[.[.`./.:.s x D.[.H.P.P.",
"P.P.P.H.W.t.A p.f.>.9.w.w.w.q.p.p.s.f.u.q.w.B 0. .a.c t P x.9.w.w.w.w.q.w.w.q.q.w.w.q.q.q.p.B l z ; A V n V J x t C 9 ) [.~.`.`.",
"P.P.P.G.P.r.A p.f.>.9.w.w.q.e.q.-.! Q #.w.q.c s.<.p.c t F x.9.w.w.w.w.q.w.w.q.q.q.w.w.q.q.p.B l z = l w 0 0 r ; l G t ) [.[.[.[.",
"P.P.P.G.T.r.K p.f.>.9.w.q.p.2.t ; , j a ! w.P 2.e.p.b t D x.9.w.w.w.w.q.q.w.w.q.q.w.w.w.q.p.B l l : R R R Y ! g ! #.9 ) [.W.~.~.",
"P.P.P.~.`.N.K e.g.>.9.w.e.,.f Y u Z I.4.r  .q.A 6.p.b t D x.9.w.w.w.w.w.w.q.w.w.w.q.q.q.q.p.B l z - ! 6.>.1.8.K 1.a.W ) [.~.`.`.",
"P.P.P.[.[.[.I ;.x.%.q.w.p.b ( g.D 8 z.R.L t 3.u.q.p.b t D x.9.w.w.q.q.w.w.w.q.q.w.w.q.q.q.p.B l z : X.q.8.8.e.! >.f.;.~ [.[.[.[.",
"P.P.P.[.[.[.D.J v.<.8.9.y.A 1.p.T X o.M.^ t 2.w.8.e.b t D x.9.w.w.w.q.w.w.w.w.q.w.w.w.q.q.p.B h z @ s P B A Y s 2.v.+.~ [.[.[.[.",
"~.~.~.W.W.W.[.5. .2.d.g.b.A >.b.P   i M.U N x.g.g.b.B t Y g.8.q.q.9.9.9.9.0.9.9.9.9.0.9.8.u.B M y j l.h.h.j.j.J k A.#.) [.P.W.W.",
"[.[.[.P.P.P.~.[.:.e T I W 2 k n./ & *.g.p 0 P Y P W , - D Z.f.g.f.g.g.g.g.g.g.g.g.g.f.g.f.k.A 0 s N.[.[.[.[.[.~.~ c s :.[.H.P.P.",
"[.[.[.P.P.P.`.[.[.D.V.B.S.P.l.,.g q =.=.G.P.S.V.B.G.~ b a #. . .@.O. . . . . . . . . . .O.( q $ T W.H.`.[.[.P.P.P.D.P.`.`.P.P.P.",
"~.~.~.W.W.W.~.~.~.`.(.~.`.`.[.W.c.N.h.P.[.`.`.~.~.[.I <.n.2.#.Y r o h f z t B t B h h z 1 >.1.0.g G.~.~.~.~.~.W.W.`.[.`.~.W.W.W.",
"P.P.P.[.[.[.P.P.P.W.[.[.).H.H.P.[.[.[.P.P.K.`.[.[.~.j.a W Y A b % Y x.>.p.,.v.>.k.0.3.k.e c g d 2 ~.[.P.P.P.`.[.[.W.H.P.W.[.[.[.",
"P.P.P.[.[.[.W.P.P.~.[.[.`.P.P.P.[.[.[.P.P.P.`.[.[.W.[.) t ! A z * b c a k t b e x k s k s 0.<.;.d W.[.P.P.P.`.[.[.~.P.P.W.[.[.[.",
"P.P.P.`.`.`.W.P.P.~.`.`.~.P.P.R.`.`.`.P.P.P.~.`.`.W.P.G.c k c * 4.B.N.S.B.S.B.N.N.B.S.C.h.I ~ P j.`.`.W.P.P.~.`.`.~.P.P.W.`.`.`.",
"[.[.[.P.P.P.`.[.[.W.P.P.W.[.[.[.P.P.P.[.[.[.U.P.P.W.[.[.P.t.t.t.W.[.[.~.~.W.[.[.[.[.W.~.`.[.[.[.W.P.P.[.[.[.W.P.P.~.[.[.`.P.P.P.",
"[.[.[.P.P.P.`.[.[.W.P.P.W.[.[.[.P.P.P.[.[.[.U.P.P.~.[.[.`.(.~.`.[.[.[.P.P.L.~.[.[.W.H.K.P.[.[.`.P.P.P.[.[.[.W.P.P.~.[.[.`.P.P.P.",
"[.[.[.P.P.P.`.[.[.W.P.P.W.[.[.`.P.P.P.`.[.[.W.P.P.~.[.[.~.H.P.P.[.[.[.P.P.P.`.[.[.~.P.P.W.[.[.`.P.P.P.`.[.[.W.P.P.~.[.[.~.P.P.P.",
"P.P.P.`.[.[.W.P.P.~.[.[.~.P.P.P.[.[.[.P.P.P.`.[.[.~.P.P.W.[.[.`.P.P.P.`.[.[.W.P.P.~.[.[.~.P.P.P.[.[.[.Y.P.P.).[.[.~.P.P.W.[.[.[.",
"P.P.P.[.[.[.W.P.P.~.[.[.`.P.P.P.[.[.[.P.P.P.`.[.[.~.P.P.W.[.[.[.P.P.P.[.[.[.W.P.P.~.[.[.`.P.P.P.[.[.[.P.P.P.`.[.[.~.P.P.W.[.[.[.",
"P.P.P.[.[.[.W.P.P.~.[.[.`.P.P.P.[.[.[.P.P.P.`.[.[.~.P.P.W.[.[.[.P.P.P.[.[.[.R.P.P.~.[.[.`.P.P.P.[.[.[.P.P.P.`.[.[.~.P.P.W.[.[.[.",
"`.`.`.W.W.W.~.`.`.~.U.R.W.`.`.~.W.W.W.^.`.`.W.U.E.~.`.`.~.P.W.W.`.`.`.W.E.U.~.`.`.~.P.P.W.`.`.~.W.W.W.^.`.`.W.U.P.~.`.`.~.P.W.W.",
"[.[.[.P.P.P.`.[.[.~.P.P.W.[.[.[.P.P.P.[.[.[.P.P.P.~.[.[.`.P.P.P.[.[.[.P.P.P.`.[.[.~.H.P.W.[.[.[.P.P.P.[.[.[.P.P.P.~.[.[.`.L.P.P.",
"[.[.[.P.P.P.`.[.[.~.P.P.W.[.[.[.P.P.P.[.[.[.T.P.P.~.[.[.`.P.P.P.[.[.[.P.P.P.`.[.[.~.L.P.W.[.[.[.P.P.P.[.[.[.T.P.P.~.[.[.`.H.P.P.",
"~.~.~.~.~.~.~.~.~.~.W.W.~.~.~.~.~.~.~.~.~.~.~.W.W.~.~.~.~.W.~.~.~.~.~.~.~.W.~.~.~.~.W.W.~.~.~.~.~.~.~.~.~.~.~.W.W.~.~.~.~.~.~.~.",
"P.P.P.[.[.[.P.P.P.~.[.[.`.J.P.P.[.[.[.P.P.P.`.[.[.Q.J.P.W.[.[.[.P.P.P.[.[.[.P.P.P.~.[.[.`.H.P.P.[.[.[.P.P.P.`.[.[.~.H.P.W.[.[.[.",
"P.P.P.[.[.[.W.P.P.~.[.[.`.P.P.P.[.[.[.P.P.P.`.[.[.~.P.P.W.[.[.[.P.P.P.[.[.[.W.P.P.~.[.[.`.P.P.P.[.[.[.P.P.P.`.[.[.~.P.P.W.[.[.[.",
"P.P.P.`.`.`.W.P.P.~.`.`.~.P.P.W.`.`.`.W.P.P.~.`.`.~.P.P.W.`.`.`.P.P.P.`.`.`.W.P.P.~.`.`.~.P.P.W.`.`.`.W.P.P.~.`.`.~.P.P.W.`.`.`.",
"[.[.[.P.P.P.`.[.[.~.P.P.W.[.[.[.P.P.P.[.[.[.U.P.P.~.[.[.`.P.P.P.[.[.[.P.P.P.`.[.[.~.P.P.W.[.[.[.P.P.P.[.[.[.E.P.P.W.[.[.`.P.P.P.",
"[.[.[.P.P.P.`.[.[.~.P.P.W.[.[.`.P.P.P.[.[.[.U.P.P.W.[.[.`.P.P.P.[.[.[.P.P.P.`.[.[.~.P.P.W.[.[.`.P.P.P.[.[.[.W.P.P.~.[.[.`.P.P.P.",
"[.[.[.P.P.P.`.[.[.~.P.P.W.[.[.[.P.P.P.[.[.[.W.P.P.~.[.[.`.P.P.P.[.[.[.P.P.P.`.[.[.~.P.P.W.[.[.[.P.P.P.[.[.[.W.P.P.W.[.[.`.P.P.P."
};
