/* XPM */
static const char *wall[] = {
/* columns rows colors chars-per-pixel */
"64 64 203 2 ",
"   c #010102",
".  c #0C0C0C",
"X  c #070B0F",
"o  c #0A0F16",
"O  c #0B1017",
"+  c #0C1219",
"@  c #131314",
"#  c #181716",
"$  c #171A1D",
"%  c #100C0B",
"&  c #141C27",
"*  c #1E2733",
"=  c #0F333B",
"-  c #25292C",
";  c #242729",
":  c #292F31",
">  c #242E3C",
",  c #222835",
"<  c #2C3234",
"1  c #25303E",
"2  c #2D343A",
"3  c #353535",
"4  c #383737",
"5  c #393939",
"6  c #363739",
"7  c #2B3645",
"8  c #2C3947",
"9  c #2E3D4C",
"0  c #233744",
"q  c #313E4C",
"w  c #353F50",
"e  c #1B535E",
"r  c #1F4A56",
"t  c #31404E",
"y  c #2C4452",
"u  c #2E4956",
"i  c #2F4C5A",
"p  c #264853",
"a  c #354453",
"s  c #3A4554",
"d  c #3C4D5C",
"f  c #354B59",
"g  c #24535E",
"h  c #2D515D",
"j  c #31525E",
"k  c #3F505E",
"l  c #1B5561",
"z  c #3D4F61",
"x  c #2B5963",
"c  c #215A66",
"v  c #355663",
"b  c #3F5362",
"n  c #395C6A",
"m  c #385866",
"M  c #1A6F79",
"N  c #1B6A74",
"B  c #1C717C",
"V  c #17707C",
"C  c #236B75",
"Z  c #3A6A76",
"A  c #22747D",
"S  c #414D5D",
"D  c #40505F",
"F  c #474F61",
"G  c #435464",
"H  c #4B5365",
"J  c #455769",
"K  c #465B6B",
"L  c #4A5C6D",
"P  c #4B5868",
"I  c #515D6E",
"U  c #515568",
"Y  c #4C5F70",
"T  c #535E71",
"R  c #4B616F",
"E  c #41606E",
"W  c #4E6272",
"Q  c #4F6578",
"!  c #4E6D7B",
"~  c #436371",
"^  c #526475",
"/  c #596273",
"(  c #516679",
")  c #546A7C",
"_  c #5A6C7C",
"`  c #606C7E",
"'  c #62707D",
"]  c #7C7B7B",
"[  c #1F7B86",
"{  c #217682",
"}  c #247A84",
"|  c #287B85",
" . c #566E80",
".. c #596F81",
"X. c #5C7384",
"o. c #5E7688",
"O. c #5F7A8B",
"+. c #547383",
"@. c #627485",
"#. c #617789",
"$. c #647B8C",
"%. c #697C8D",
"&. c #667E90",
"*. c #6A7F90",
"=. c #717F91",
"-. c #29828C",
";. c #3D8C96",
":. c #438A97",
">. c #468B99",
",. c #528493",
"<. c #5D8595",
"1. c #5B8999",
"2. c #678193",
"3. c #6C8394",
"4. c #6E8798",
"5. c #6E899B",
"6. c #618A9A",
"7. c #728395",
"8. c #728799",
"9. c #738A9C",
"0. c #798A9C",
"q. c #7C8296",
"w. c #4B98A4",
"e. c #5795A3",
"r. c #758EA1",
"t. c #7B8EA1",
"y. c #7692A3",
"u. c #7A92A4",
"i. c #7B97A9",
"p. c #7D99AC",
"a. c #7E9DB0",
"s. c #699BAC",
"d. c #4BA3AE",
"f. c #55A4AE",
"g. c #55A6B1",
"h. c #59AAB5",
"j. c #55AEB9",
"k. c #59A9B4",
"l. c #57B0BB",
"z. c #59B2BD",
"x. c #4FA5B0",
"c. c #76AABA",
"v. c #73A7B6",
"b. c #9C9B9B",
"n. c #8097A9",
"m. c #819BAE",
"M. c #8293A5",
"N. c #829EB0",
"B. c #82A0B2",
"V. c #A5A3A2",
"C. c #A9A8A7",
"Z. c #ADACAB",
"A. c #A8A7A6",
"S. c #B0AFAE",
"D. c #B1B0AF",
"F. c #B3B3B3",
"G. c #CAC9C9",
"H. c #D0CFCE",
"J. c #D2D1CF",
"K. c #D5D4D3",
"L. c #D9D7D7",
"P. c #DCDBDB",
"I. c #D7D8D8",
"U. c #E1DFDF",
"Y. c #E1E0DF",
"T. c #E6E6E5",
"R. c #E8E7E6",
"E. c #E7E8E7",
"W. c #E9E8E7",
"Q. c #E8E9E8",
"!. c #EAEAEA",
"~. c #ECEDEC",
"^. c #EEEEEE",
"/. c #EEEEED",
"(. c #ECECEC",
"). c #E7E8E8",
"_. c #F0EFEF",
"`. c #EFF0EF",
"'. c #F1F0EF",
"]. c #EFEFF0",
"[. c #F0EFF0",
"{. c #EFF0F0",
"}. c #F0F0F0",
"|. c #F2F3F2",
" X c #F1F2F1",
".X c #F4F3F3",
"XX c #F4F4F4",
"oX c gray96",
"OX c #F5F5F4",
"+X c #F6F7F7",
"@X c #F5F6F6",
"#X c #F3F3F3",
"$X c #F7F8F7",
"%X c #F7F8F8",
"&X c #F9F9F9",
"*X c #F8F8F8",
"=X c #FBFBFB",
"-X c #F9FAF9",
";X c #FEFEFE",
":X c white",
">X c #FCFDFD",
",X c #FCFCFD",
"<X c #F8F8F7",
/* pixels */
";X;X^.T.|.;X*XQ.Q.*X;X|.T.|.;X;XQ.Q.*X;X+XT.^.;X;X^.Q.+X;X+XQ.^.;X;X^.T.+X;X*XQ.Q.*X;X|.T.|.;X;X(.Q.*X;X;X;X*XQ.Q.*X;X|.T.|.;X;X",
";X;X^.T.|.;X*XQ.Q.*X;X|.T.|.;X;XQ.Q.*X;X+XT.^.;X;X(.T.+X;X+XT.^.;X;X^.T.+X;X*XQ.Q.*X;X|.T.|.;X;XQ.Q.*X;X;X;X*XQ.Q.*X;X|.T.`.;X;X",
"^.^.+X*X+X^.|.*X*X|.^.+X*X+X^.|.*X*X|.^.XX*X+X^.^.*X*X|.^.|.*X*X^.^.+X*X+X^.|.*X*X|.^.+X*X+X^.|.*X*X|.^.^.^.|.*X*X|.^.+X*X+X^.^.",
"W.T.*X;X+XT.^.;X;XQ.T.+X;X+XT.Q.;X;X^.T.|.;X*XT.E.*X;X^.T.{.;X*XE.T.*X;X|.T.^.;X;XQ.T.+X;X+XT.Q.;X;X^.T.Q.T.Q.;X;XQ.T.+X;X+XT.T.",
"+X+X+X|.+X+X+X+X+X*X*X+X+X+X*X*X+X+X+X*X$X+X+X*X*X+X+X%X*X%X+X+X*X*X+X+X+X*X*X+X+X*X*X+X+X+X*X*X+X+X*X*X*X*X*X+X+X#X+X+X|.#X+X+X",
";X;X^.T.|.;X*XP.P.^.+XT.P.T.+X[.P.P.|.,XR.P.T..X|.P.P.Q.+XQ.P.T.+X.XT.P.T.+X^.P.P.^..XQ.T.T..X'.P.P.^.OX|..X^.P.P.*X;X|.T.^.;X;X",
"+X+X|.|.|.;XG.- 3 < < < < < < < < < $ # < 2 < < < < : < < 2 : # $ 3 < < < < < < < < 3 ; @ ; 6 < < < < < < < < : 5 P.*X|.|.|.+X+X",
"Q.T.*X;X*XK.: 9.r.y.u.r.4.i.y.y.5.u.1 q i.9.y.y.u.4.y.y.y.9.8.& L i.9.y.y.9.p.y.r.9.u.W + 3.r.r.y.y.y.y.y.y.8.i.d 5 ^.|.;X+XT.Q.",
"^.^.+X;X*XK.2 i.~ %.r.%.y.y.9.9.P X.d o.4.K 9.r.%.5.u.r.3.G @.a r.O.! 9.3.y.u.8.r.@.W ) f m.W @.r.9.9.9.9.9.) X.d 3 +X|.;X+X^.^.",
";X;X^.T.*XW.< i.%.3.2.y.9.8.9.9.@.4.a ) y.#.8.3.r.y.8.9.8.@.3.8 4.4.#.4.y.y.8.9.9.3.%.) q p.#.4.9.8.9.9.9.9.$.8.d 3 ;X|.T.|.;X;X",
";X;X^.T.*XR.< p.4.3.y.r.8.9.9.9.9.y.a ) m.9.3.y.y.8.9.8.9.y.8.8 5.r.4.y.r.8.9.9.8.9.u.) q p.9.9.8.9.9.9.9.9.9.i.d 3 ;X|.T.|.;X;X",
"^.^.+X;X*XK.< u.5.y.9.9.9.9.9.8.8.r.a _ u.3.u.9.8.9.8.9.8.9.4.8 3.r.y.9.8.9.9.9.9.8.r.) q p.8.9.9.8.9.9.8.9.8.u.f 3 OX|.;X+X^.^.",
"Q.T.*X;X*XH.: a.u.9.9.9.9.9.9.8.9.8.8 _ p.r.9.9.9.9.9.9.8.9.4.8 5.p.8.9.9.9.8.9.9.8.y.^ q p.8.9.9.9.9.9.8.8.8.y.a 3 ^.|.;X+XT.Q.",
"%X*X|.^.*XY.< i.8.9.8.8.9.8.8.9.9.%.8 _ N.8.9.9.8.9.9.8.9.9.X.7 5.y.8.9.9.8.8.8.8.9.9.K q p.8.9.9.9.9.9.9.9.9.3.9 5 ;X|.^.|.*X*X",
";X;X^.T.*XR.< i.9.9.9.9.9.9.9.8.#. .9 _ i.8.9.8.8.8.8.9.4.X.( 7 5.u.9.9.8.8.8.9.9.4.X.G t p.9.9.8.8.8.9.9.8.o.X.9 5 ;X|.T.^.;X;X",
";X;X|.T.*XR.: u.3.8.8.8.8.4.%. .W _ 9 _ p.3.9.9.9.9.9.4.) W ) 7 3.r.4.9.8.8.8.3.#.( ) G t p.3.8.9.9.9.4.%. .Q  .q 5 ;X|.E.|.;X;X",
";X;X^.T.*XR.< O.s W .._ _ ) ) ) f K q _ #.d #.$.#.$.o._ Q a K 8 &.W G .. . ._ ( ) J f b a 5.d L o.X.X.) ) ) f G a 5 ;X|.T.`.;X;X",
"+X$X|.^.*XT.-  .J W ( Q Q ( ) ) K Q q L ) K ( ^ Q ^ ^ ( ( K Y 7 ) W L ( ^ ^ ( ( ( W L G q $.K W ( Q ( ( ) ) K Q t 5 ;X|.`.|.*X+X",
"Q.T.*X;X$XI.. , d a a a a a a a f a > > i i u i a y i i u i i 0 0 j i u u u y u u u i y , 8 f a a a a a a a a d * 3 ^.|.;X+XT.Q.",
"^.^.+X;X*XP.$ #.i.y.y.y.9.y.y.y.y.y.t ;.h.f.f.x.Z w.g.f.f.f.f.g.g.f.f.f.f.w.Z z.f.f.g.d.c %.u.y.y.y.y.y.y.y.y.m.a 3 +X|.;X+X^.^.",
";X;X^.T.*XT.2 p.! &.y.3.y.u.9.9.^ @.n h.@.Q 0.*.d i.@.9.0.0.0.0.0.0.9.0.%.@.I N.8.@./ <.-.u.+.%.r.9.9.9.9.r.) @.D 3 ;X|.T.|.;X;X",
";X;X`.T.*XR.< u._ %.3.r.r.8.9.9.^ @.m g.@.Q 9.3.d y.8.8.9.9.9.8.8.8.9.8.8.&.L p.9.o.^ <.| 0._ #.9.8.9.8.9.9._ #.d 3 ;X|.R.|.;X;X",
"^.(.+X;X*XK.< p.9.3.y.r.8.9.8.9.r.9.v g.0.9.9.3.d y.9.9.9.9.9.8.9.8.9.8.9.3.L N.8.9.0.<.| 0.9.9.9.9.9.9.9.9.9.i.f 3 #X|.;X+XQ.^.",
"Q.T.*X;X*XJ.< y.3.i.9.8.9.9.9.8.8.8.v g.0.8.9.3.d y.9.8.8.9.8.8.8.8.9.8.9.3.L N.8.8.9.<.| t.8.4.%.9.8.9.9.9.8.y.a 3 ^.|.;X+XT.Q.",
"%X*X|.^.*XT.< p.y.9.9.9.9.9.9.8.9.7.j g.0.8.9.3.d y.9.8.9.8.8.8.9.9.9.8.9.3.L N.8.9.9.<.| u.#._ 4.9.8.9.9.9.9.4.9 5 ;X|.^.|.*X*X",
";X;X^.T.*XW.< p.9.9.9.9.9.9.8.9.9.X.i g.0.9.9.3.d y.9.9.8.8.8.8.9.9.9.8.9.3.L N.8.8.0.<.| 0.#.3.9.8.9.8.9.9.3.X.9 5 ;X|.T.^.;X;X",
"|.|.+X|.*XP.< i.8.9.9.9.9.9.9.8.o.^ j g.9.9.9.3.d y.9.8.9.8.8.9.8.8.9.8.9.&.L N.8.9.9.<.| 0.9.9.8.9.9.9.9.$.)  .9 5 ,X|.+X+X|.|.",
"T.T.%X;X*XH.< p.r.r.9.9.9.9.3.) ) ) j g.9.8.9.3.d y.9.8.9.8.9.9.8.8.8.8.9.3.L N.8.8.9.<.| t.r.9.9.8.3.#...( ) X.9 3 ^.|.;X+XT.T.",
"|.|.+X+X*XP.< 9.^ o.3.&.&.X.) K f L j g.9.8.9.3.d y.9.9.9.8.9.8.8.8.8.8.9.&.L m.8.9.9.<.| #.L ) o._ ( Q ( ) G K 9 5 %X|.*X+X|.|.",
";X;X^.T.*XR.< $.d W  .) ) )  .) b Y v g.9.8.9.3.d y.9.9.9.9.8.8.9.9.8.8.9.&.L m.8.8.9.<.| ..z W  ._  . . . .J W a 5 ;X|.T.^.;X;X",
"*X,X|.Q.*XQ.@ 7 s a a a a a a a a w p h.9.8.9.3.d y.9.9.8.8.8.8.9.9.8.8.9.#.G N.8.8.9.1.N q a a a a a a a a a f , 5 ;X|.Q.|.;X*X",
"Q.Q.*X;X*XP.. t _ W W W W W W W ^ I p k.9.8.9.3.d y.9.8.8.8.8.8.8.8.8.8.r.X.k B.8.8.9.6.N s ) W W W W W W W W ) 1 3 `.|.;X*XQ.Q.",
"Q.Q.*X;X*XK.< a.9.u.p.p.p.p.p.p.9.r.n g.0.8.9.3.d y.9.8.9.8.9.8.9.9.9.8.r.) G B.8.8.9.<.| i.5.u.p.y.B.B.p.m.9.m.G 3 |.#X;X$XQ.Q.",
"*X;X|.Q.*XT.2 y.E o.9.4.8.8.8.4.G ^ n g.0.8.9.3.d y.9.8.9.8.8.8.9.9.9.9.9.L G B.8.8.9.<.| 0.~ X.3.5.r.8.8.8.L ) S 3 ;X|.Q.|.;X*X",
";X;X^.T.*XR.< i.3.8.9.9.9.9.9.9.4.8.v g.0.9.9.3.d y.9.9.8.8.8.8.8.8.8.9.&.L G B.8.8.9.<.| t.8.&.y.u.8.9.9.9.4.y.d 3 ;X|.T.^.;X;X",
"|.^.+X*X*XL.< i.9.9.8.8.9.9.9.8.9.8.v g.0.8.9.3.d y.9.9.8.8.8.8.8.8.9.4._ L G N.8.8.9.<.| t.4.y.u.8.9.9.8.9.9.i.d 3 +X|.*X+X^.`.",
"T.T.*X;X*XH.< i.8.8.9.9.9.8.8.8.9.8.v g.9.8.9.3.d y.9.8.8.8.8.8.8.9.4._ ) L G B.8.8.9.<.| t.y.9.8.8.8.8.9.8.8.u.a 3 ^.|.;X+XT.T.",
"+X+X+X|.*XP.< i.8.9.9.9.8.8.9.8.9.%.i g.8.8.9.3.d y.9.8.8.8.8.9.9.3._ ) _ L G B.8.8.9.<.| i.r.8.9.8.8.9.&.%.8.4.9 4 ,X|.#XXX+X+X",
";X;X^.T.*XR.< i.8.9.9.9.9.8.8.9.4._ h g.8.8.9.3.d y.9.8.9.9.9.8.#.) ) ) ) L G B.8.8.9.<.| 0.8.9.9.8.9.4.#.r.4.X.9 5 ;X|.T.^.;X;X",
"+X+X|.^.*XU.< i.9.9.9.9.9.9.9.3. .( j g.0.9.9.3.d y.9.9.8.3.o._ ) ) ) ) ) L G B.8.9.0.<.| t.r.9.8.8.9.r.5.) W X.9 4 ;X|.^.|.*X+X",
"Q.T.*X;X*XH.< y.%.4.8.8.8.3.o.) W ^ j g.7.%.9.3.d 2.o.X.) ) ^ ( ) ) ) ) ) L G N.8.3.%.<.| t.%.4.9.9.9.2.^ G S ( 9 3 ^.|.;X+XT.W.",
"^.^.+X;X*XK.2 &.s W X. . .) ) ) d G v k.^ b 8.3.d $.K ) ) ) ) ) ) ) ) ) W G G B.9.^ G <.| %.a ^ $.X._ _ L G a d 9 3 |.|.;X+X^.^.",
";X;X^.T.*XQ.; ^ H I T T I T T T P U h h.%.#.9.3.G 3.L ) ) ) ) ^ ( ) ) ) W G K m.4.3.%.1.} ^ W Q Q Q ( ( ( Q L W 9 5 ;X|.T.|.;X;X",
";X;X^.T.*X].. = c e l l l l l l l l 0 C } { A [ l C B M M M M { { M M M B V e { [ } } [ r , 0 > 1 1 > > > 1 1 7 & 5 ;X|.T.|.;X;X",
"^.^.+X;X*XP.% x w.:.:.>.>.:.>.>.>.>.0 > W W R R W L L W L Q R > 9 ^ W R W W L W W R ^ d * G ^ W W W W W W W ^ ) 1 3 |.|.;X+X^.^.",
"Q.T.*X;X*XJ.: n.*.0.M.t.8.n.M.t.7.q.| ,.m.5.p.p.u.9.N.m.i.4.9.g k.u.9.m.m.y.B.N.p.y.y.` A c.8.y.p.p.p.p.p.p.5.i.G 3 ^.|.;X+XT.Q.",
"*X*X|.^.*XY.< y.~ #.8.#.9.9.8.5.K _ -.,.*.K 8.8.O.y.9.8.3.D _ x z._ Q 9.&.5.9.4.9._ L ^ } v.K o.9.8.8.8.8.8.W _ d 3 ;X|.^.|.*X*X",
";X;X^.T.*XR.: i.8.4.2.u.y.8.9.9.5.7.| ,.u.4.8.4.y.r.8.9.9.8.7.g j.0.4.3.y.y.8.9.9.8.9./ } c.=.8.9.9.9.9.9.9.4.y.d 4 ;X|.T.].;X;X",
";X;X|.Q.*XT.< i.3.3.y.3.8.9.9.8.r.8.| ,.u.3.5.y.9.8.9.9.8.r.7.g l.8.4.r.9.8.9.9.9.8.u./ } c.7.9.9.9.9.9.9.9.9.i.d 4 ;X|.Q.|.;X;X",
";X;X^.T.*XR.< y.4.y.' @.9.8.9.8.9.8.| ,.0.5.y.8.8.9.9.8.8.9.7.g j.7.9.9.8.9.9.9.9.8.y./ { c.8.9.9.9.8.8.9.8.9.y.a 5 ;X|.T.`.;X;X",
"*X*X|.^.*XT.: a.y.3.@.8.9.8.8.8.9.7.} ,.m.r.8.8.9.9.8.9.9.9.*.g l.u.8.8.9.9.9.9.8.8.y.I } c.8.9.9.8.8.8.8.9.9.$.9 5 ;X|.^.|.*X*X",
"Q.T.*X;X*XJ.< i.8.9.9.9.8.8.8.9.r.@.B 1.n.4.9.8.9.9.9.8.$.y._ g l.0.8.8.9.8.9.9.8.9.5.F } c.8.9.8.8.8.9.9.8.X. .a 3 ^.|.;X+XT.Q.",
"^.Q.+X;X*XK.< i.9.9.9.9.9.9.9.4.O.^ { ,.u.9.9.9.9.9.9.@.#.$.^ g l.0.9.9.9.9.9.9.8.#.X.F } c.9.9.9.9.9.8.%._ ( X.t 3 |.|.;X+XQ.^.",
";X;X|.T.*XT.: u.3.8.9.9.9.4.#._ Q / { ,.t.3.9.8.8.8.3.^ Y L ^ g j.7.3.4.4.4.4.%.X.Q ) F } s._ o.o.#.X.) ( ) (  .9 5 ;X|.R.|.;X;X",
";X;X^.T.*XR.< $.S ^ X.....) ) ) d H } ,.^ d _ X._ ..) Y G q H x d.H G ) ) ) ) ( ) K d S -.e.a K ) Q ) ) ) ) d K a 5 ;X|.T.|.;X;X",
"^.^.+X*X*XL.; ..Y (  .) ) _  . .W / A Z _ W ) _ _ ) _ _ ^ G P g :.T W _ ) _ _ ) _ ( ( F C ,.L )  ._ _ _ _  .Y ) t 3 +X#X;X+X^.^.",
"Q.T.*X;X+XT.] X + O o + + + O o + +     O + O o o O O O O O o     O + + O o O + O + + X   X + + O O + + O O + O @ b.Q.|.;X+XT.Q.",
"+X+X|.|.|.*X|.A.V.Z.S.C.V.A.S.Z.V.V.S.F.C.V.A.Z.Z.A.V.Z.D.C.V.C.F.S.A.V.C.S.Z.V.A.V.V.Z.F.Z.V.V.Z.D.C.V.C.D.Z.V.F.*X<XXX|.|.+X+X",
";X;X^.T.|.;X*X+X+X;X;X*X+X*X;X;X+X+X;X;X*X+X*X;X;X%X+X;X;X,X+X+X;X;X*X+X*X;X;X*X*X+X+X*X;X;X+X+X;X;X*X+X*X;X;X+X#X*X;X|.T.^.;X;X",
"+X+X|.|.+X+X+X^.^.|.|.|.^.|.#X|.^.^.|.#X|.^.|.|.|.^.^.|.#X|.^.^.|.|.{.^.|.#X|.|.|.^.^.|.+X|.^.^.|.|.|.^.|.|.|.^.^.+X+XXX|.|.+X+X",
"T.T.*X;X#XT.^.;X;XQ.T.+X;X+XT.Q.;X;X^.T.|.;X*XT.Q.;X;X`.T.|.;X*X).T.*X;X|.T.^.;X;X;X;X|.T.^.;X;XQ.T.*X;X+XT.Q.;X;X(.T.+X;X*XT.T.",
"^.^.+X*X+X^.|.*X*X|.^.+X=X+X^.[.*X*X|.^.+X*X+X^.^.*X*X|.^.|.*X*X^.^.+X;X+X^.|.;X;X*X*X|.^.|.*X*X^.^.+X,X+X^.|.*X*X|.^.+X;X+X^.^.",
";X;X^.T.|.;X*XQ.Q.;X;X|.T.|.;X;XQ.Q.*X;X+XT.^.;X;X^.T.+X;X+XT.^.;X;X^.T.+X;X;X;X;X^.T.+X;X*XQ.Q.;X;X'.T.|.;X*XQ.Q.*X;X|.T.|.;X;X",
";X;X^.T.|.;X*XQ.Q.;X;X|.T.|.;X;XQ.Q.*X;X+XT.^.;X;X^.Q.+X;X+XQ.^.;X;X^.T.+X;X;X;X;X^.E.+X;X*XQ.(.;X;X|.E.|.;X*XQ.Q.*X;X|.T.|.;X;X"
};
